<svg width="79" height="44" viewBox="0 0 79 44" fill="none" xmlns="http://www.w3.org/2000/svg">
<path fill-rule="evenodd" clip-rule="evenodd" d="M70.1593 0C69.4423 0 68.7802 0.383808 68.4238 1.00598L44.9999 41.9024C49.3045 44.3877 54.8089 42.9128 57.2941 38.6082L78.5644 1.7671C79.0178 0.981721 78.451 0 77.5441 0H70.1593ZM15.5203 3.69234C16.0203 2.69234 17.6203 0.692337 20.0203 0.692337C22 0.692337 23.5 2.10408 24.0203 2.69234C25.4059 4.25911 25.8347 4.20551 27.6385 3.98004C28.5957 3.86039 29.9401 3.69234 32.0203 3.69234C36.7287 3.69234 38.4348 4.65455 40.1734 5.63513L40.2749 5.69234L26 30.1923C25.8514 29.8703 25.6922 29.5071 25.5222 29.1193L25.5219 29.1187L25.5219 29.1187C24.5484 26.8976 23.2228 23.8734 21.5203 23.1923C20.1525 22.6452 19.2337 23.4451 18.2726 24.2819C17.477 24.9745 16.6525 25.6923 15.5203 25.6923C14.2006 25.6923 13.4382 24.9957 12.7183 24.338C12.0744 23.7496 11.4645 23.1923 10.5203 23.1923C9.52026 23.1923 9.02026 23.6923 8.45776 24.2548C7.89526 24.8173 7.27026 25.4423 6.02026 25.6923C4.03367 26.0897 2.3628 23.014 1.25854 20.9813C0.973157 20.456 0.725621 20.0004 0.520259 19.6923C-0.479741 18.1923 0.0202591 16.6923 1.52026 15.1923C3.02026 13.6923 3.52026 13.1923 3.52026 11.1923C3.52026 9.19234 7.02026 6.69234 9.52026 5.19234C11.5203 3.99234 14.3536 3.69234 15.5203 3.69234ZM13 10.8352L7 13.6923C7.2 13.1209 7.6 11.8638 7.6 11.4066C7.6 10.8352 7.6 9.69234 9.4 9.69234C10.84 9.69234 12.4 10.4542 13 10.8352ZM43.2115 5.19234C42.4969 5.19234 41.8367 5.57354 41.4794 6.19235L27.0003 31.2712L34.7945 35.7712L50.8114 8.19689C51.5859 6.86356 50.6239 5.19234 49.082 5.19234L43.2115 5.19234ZM54.5163 4.19269C55.2308 2.95489 56.5514 2.19234 57.9806 2.19234L62.6429 2.19234C64.1832 2.19234 65.1454 3.86043 64.3741 5.19377L43.7944 40.7712L36.0001 36.2712L54.5163 4.19269Z" fill="#566FFE"/>
</svg>
