<svg width="59" height="59" viewBox="0 0 59 59" fill="none" xmlns="http://www.w3.org/2000/svg">
<path d="M45.0405 40.0035C47.1424 42.8176 49.3099 45.6971 51.4774 48.5767C47.1424 53.6813 41.7564 56.9535 35.2538 58.3279C28.0288 59.8331 21.1978 58.7205 14.5638 55.0556C20.4753 50.6709 26.2553 46.3516 32.1011 42.0322C33.4147 43.2757 34.6627 44.5191 35.9107 45.6971C37.29 47.006 36.7645 47.0714 38.538 46.0898C40.9682 44.7155 43.0044 42.8176 44.5808 40.527C44.6464 40.3961 44.7778 40.2652 44.8435 40.1343C44.7778 40.1343 44.8435 40.1343 45.0405 40.0035ZM19.2273 45.7626C17.5852 47.006 16.0745 48.1186 14.5638 49.2966C13.4472 50.1473 12.3306 50.9327 11.214 51.7834C10.7543 52.1761 10.4258 52.1761 9.90038 51.718C4.90851 47.2678 1.75575 41.7705 0.573465 35.226C-0.608821 28.6162 0.4421 22.3335 3.59486 16.3781C3.66054 16.2472 3.79191 16.0509 3.85759 15.92C3.85759 15.8545 3.92327 15.8545 4.05464 15.7891C8.38968 21.4827 12.7904 27.1764 17.1255 32.87C16.9941 33.0664 16.9284 33.1973 16.797 33.3281C15.4834 34.7025 14.1697 36.0768 12.7904 37.3857C12.3963 37.7784 12.3306 38.1056 12.5934 38.5637C13.9727 41.1815 15.8775 43.3411 18.2421 45.1081C18.5705 45.3045 18.8332 45.5008 19.2273 45.7626ZM43.7269 5.12166C41.625 6.62688 39.5232 8.13209 37.4214 9.57187C33.8088 12.1242 30.1963 14.742 26.6494 17.2943C26.1896 17.6215 25.8612 17.687 25.4671 17.2289C24.2849 15.9854 23.0369 14.8729 21.8546 13.6294C21.5262 13.3022 21.1978 13.2367 20.738 13.4331C17.9137 14.8729 15.6804 16.9016 13.8413 19.454C13.71 19.5848 13.5786 19.7812 13.4472 19.9775C12.3963 18.6032 11.4111 17.3597 10.4258 16.0509C9.37492 14.6765 8.38969 13.3022 7.40445 11.9933C7.07604 11.5352 7.01035 11.208 7.47013 10.7499C12.5277 5.1871 18.7675 1.91489 26.2553 1.12956C32.1668 0.475114 37.8155 1.65311 43.0701 4.46722C43.2671 4.5981 43.4641 4.66355 43.6612 4.79444C43.6612 4.99077 43.6612 5.05621 43.7269 5.12166ZM54.4331 44.3882C53.0538 42.6212 51.8058 40.9851 50.5579 39.349C47.6678 35.5532 44.7778 31.692 41.8221 27.8963C41.428 27.3727 41.428 27.0455 41.8878 26.5874C43.1357 25.3439 44.318 24.1005 45.566 22.8571C45.8944 22.5298 46.0258 22.2026 45.763 21.7445C44.318 18.9958 42.3475 16.7053 39.7859 14.8729C39.5889 14.742 39.3918 14.5456 39.1291 14.4147C39.3262 14.2184 39.5232 14.0875 39.6546 13.9566C42.1505 12.0588 44.6464 10.2263 47.1424 8.32843C47.5365 8.0012 47.8649 7.87032 48.3247 8.32843C54.5645 13.9566 57.9143 20.9592 58.2427 29.4015C58.3741 34.3098 57.2575 38.9564 55.0243 43.3411C54.8272 43.6029 54.6302 43.9301 54.4331 44.3882Z" fill="#231815"/>
</svg>
