<svg width="305" height="529" viewBox="0 0 305 529" fill="none" xmlns="http://www.w3.org/2000/svg">
<path d="M303.782 426.523V441.175C303.782 444.283 301.788 447.612 297.578 450.054V435.403C301.566 432.739 303.561 429.631 303.782 426.523Z" fill="#5618B8"/>
<path d="M0.226562 440.948V426.297C0.226562 429.627 2.44231 432.735 6.65222 435.176V449.828C2.44231 447.386 0.226562 444.278 0.226562 440.948Z" fill="#5618B8"/>
<path d="M297.355 435.18V449.831L167.734 525.529V510.656L297.355 435.18Z" fill="#5618B8"/>
<path d="M137.164 510.656V525.529L6.65625 449.831V435.18L137.164 510.656Z" fill="#5618B8"/>
<path d="M167.734 510.656V525.307C159.314 530.191 145.576 530.191 137.156 525.307V510.656C145.576 515.54 159.314 515.54 167.734 510.656Z" fill="#5618B8"/>
<path d="M297.364 417.42C305.784 422.304 305.784 430.296 297.364 435.18L167.743 510.656C159.323 515.54 145.586 515.54 137.166 510.656L6.65862 435.18C-1.76121 430.296 -1.76121 422.304 6.65862 417.42L136.28 341.944C144.699 337.06 158.437 337.06 166.857 341.944L297.364 417.42Z" fill="url(#paint0_linear_1728_86709)"/>
<path d="M289.823 413.641V426.96C289.823 429.846 287.829 432.732 284.062 434.952V421.632C287.829 419.412 289.823 416.526 289.823 413.641Z" fill="#5FD9FF"/>
<path d="M12.8516 426.96V413.641C12.8516 416.526 14.8457 419.634 18.6125 421.854V435.174C14.8457 432.954 12.8516 429.846 12.8516 426.96Z" fill="#5FD9FF"/>
<path d="M284.055 421.633V435.174L165.734 503.991V490.671L284.055 421.633Z" fill="#5FD9FF"/>
<path d="M137.816 490.671V503.991L18.6094 435.174V421.633L137.816 490.671Z" fill="#5FD9FF"/>
<path d="M165.739 490.672V503.991C158.205 508.431 145.575 508.431 137.82 503.991V490.672C145.575 495.112 158.205 495.112 165.739 490.672Z" fill="#5FD9FF"/>
<path d="M284.059 405.428C291.814 409.867 291.814 417.193 284.059 421.633L165.739 490.449C158.205 494.889 145.575 494.889 137.82 490.449L18.6132 421.633C10.8581 417.193 10.8581 409.867 18.6132 405.428L136.934 336.611C144.689 332.171 157.097 332.171 164.852 336.611L284.059 405.428Z" fill="#5FD9FF"/>
<path d="M304.009 393.875V408.526C304.009 411.634 302.015 414.964 297.805 417.406V402.755C301.793 400.313 304.009 396.983 304.009 393.875Z" fill="#5618B8"/>
<path d="M0.453125 408.526V393.875C0.453125 397.205 2.66887 400.313 6.87878 402.755V417.406C2.66887 414.964 0.453125 411.634 0.453125 408.526Z" fill="#5618B8"/>
<path d="M297.804 402.758L297.582 417.409L167.961 492.885V478.234L297.804 402.758Z" fill="#5618B8"/>
<path d="M137.382 478.234V492.885L6.875 417.409V402.758L137.382 478.234Z" fill="#5618B8"/>
<path d="M167.968 478.234V492.886C159.548 497.769 145.81 497.769 137.391 492.886V478.234C145.81 483.118 159.548 483.118 167.968 478.234Z" fill="#5618B8"/>
<path d="M297.583 384.998C306.003 389.882 306.003 397.874 297.583 402.758L167.962 478.234C159.542 483.118 145.804 483.118 137.385 478.234L6.87737 402.758C-1.54246 397.874 -1.54246 389.882 6.87737 384.998L136.498 309.522C144.918 304.638 158.656 304.638 167.076 309.522L297.583 384.998Z" fill="url(#paint1_linear_1728_86709)"/>
<path d="M290.042 380.344V393.663C290.042 396.549 288.048 399.435 284.281 401.655V388.335C288.048 386.115 290.042 383.23 290.042 380.344Z" fill="#5FD9FF"/>
<path d="M13.0781 393.663V380.344C13.0781 383.23 15.0723 386.337 18.8391 388.557V401.877C15.0723 399.657 13.0781 396.549 13.0781 393.663Z" fill="#5FD9FF"/>
<path d="M284.289 388.336V401.877L165.969 470.694V457.375L284.289 388.336Z" fill="#5FD9FF"/>
<path d="M138.051 457.375V470.694L18.8438 401.877V388.336L138.051 457.375Z" fill="#5FD9FF"/>
<path d="M165.965 457.375V470.694C158.432 475.134 145.802 475.134 138.047 470.694V457.375C145.802 461.815 158.21 461.815 165.965 457.375Z" fill="#5FD9FF"/>
<path d="M284.286 372.131C292.041 376.571 292.041 383.896 284.286 388.336L165.965 457.153C158.432 461.592 145.802 461.592 138.047 457.153L18.8398 388.336C11.0847 383.896 11.0847 376.571 18.8398 372.131L137.16 303.314C144.916 298.874 157.324 298.874 165.079 303.314L284.286 372.131Z" fill="#5FD9FF"/>
<path d="M304.228 360.578V375.229C304.228 378.337 302.233 381.667 298.023 384.109V369.458C302.012 367.016 304.228 363.686 304.228 360.578Z" fill="#5618B8"/>
<path d="M0.671875 375.229V360.578C0.671875 363.908 2.88762 367.016 7.09753 369.458V384.109C2.88762 381.667 0.671875 378.337 0.671875 375.229Z" fill="#5618B8"/>
<path d="M297.808 369.461V384.112L168.188 459.589V444.937L297.808 369.461Z" fill="#5618B8"/>
<path d="M137.601 444.937V459.589L7.09375 384.112V369.461L137.601 444.937Z" fill="#5618B8"/>
<path d="M168.187 444.938V459.589C159.767 464.473 146.029 464.473 137.609 459.589V444.938C146.029 449.821 159.767 449.821 168.187 444.938Z" fill="#5618B8"/>
<path d="M297.802 351.702C306.221 356.585 306.221 364.577 297.802 369.461L168.181 444.937C159.761 449.821 146.023 449.821 137.603 444.937L7.09612 369.461C-1.32371 364.577 -1.32371 356.585 7.09612 351.702L136.717 276.225C145.137 271.342 158.875 271.342 167.294 276.225L297.802 351.702Z" fill="url(#paint2_linear_1728_86709)"/>
<path d="M164.857 274.898V289.549C157.545 285.331 145.359 285.331 138.047 289.549V274.898C145.58 270.68 157.545 270.68 164.857 274.898Z" fill="#CCD3E2"/>
<path d="M274.096 338.165V352.817L164.859 289.55V274.898L274.096 338.165Z" fill="#CCD3E2"/>
<path d="M279.86 345.934V360.585C279.86 357.699 278.087 354.813 274.32 352.815V338.164C277.866 340.162 279.86 343.048 279.86 345.934Z" fill="#CCD3E2"/>
<path d="M24.1641 360.585V345.934C24.1641 343.048 25.9367 340.384 29.7034 338.164V352.815C25.9367 354.813 24.1641 357.699 24.1641 360.585Z" fill="#CCD3E2"/>
<path d="M285.176 345.938V360.589C285.176 364.141 282.739 367.692 278.086 370.578V355.927C282.739 353.041 285.176 349.489 285.176 345.938Z" fill="#CCD3E2"/>
<path d="M18.8438 360.589V345.938C18.8438 349.489 21.2811 353.263 25.9341 355.927V370.578C21.0595 367.692 18.8438 364.141 18.8438 360.589Z" fill="#CCD3E2"/>
<path d="M278.088 335.945C287.616 341.495 287.616 350.374 278.31 355.924L169.738 419.191C160.211 424.74 144.922 424.74 135.394 419.191L26.1581 355.924C16.6304 350.374 16.6304 341.495 25.9365 335.945L134.508 272.678C144.036 267.128 159.324 267.128 168.852 272.678L278.088 335.945ZM165.75 416.749L274.321 353.482C281.633 349.264 281.633 342.161 274.321 337.943L165.085 274.676C157.773 270.458 145.587 270.458 138.275 274.676L29.7033 337.943C22.3913 342.161 22.3913 349.264 29.7033 353.482L138.939 416.749C146.473 420.967 158.438 420.967 165.75 416.749Z" fill="white"/>
<path d="M138.275 274.898L138.053 289.55L29.7031 352.817V338.165L138.275 274.898Z" fill="#CCD3E2"/>
<path d="M278.087 355.922V370.573L169.516 433.618V418.967L278.087 355.922Z" fill="#CCD3E2"/>
<path d="M135.174 418.967V433.618L25.9375 370.573V355.922L135.174 418.967Z" fill="#CCD3E2"/>
<path d="M169.516 418.969V433.62C159.988 439.17 144.7 439.17 135.172 433.62V418.969C144.7 424.518 160.21 424.518 169.516 418.969Z" fill="#CCD3E2"/>
<path d="M245.954 355.703V358.589C245.954 361.697 243.96 365.027 239.75 367.469V364.583C243.96 362.141 245.954 359.033 245.954 355.703Z" fill="#CCD3E2"/>
<path d="M57.8359 358.589V355.703C57.8359 359.033 60.0517 362.141 64.2616 364.583V367.469C60.0517 365.027 57.8359 361.697 57.8359 358.589Z" fill="#CCD3E2"/>
<path d="M239.749 364.578V367.464L167.516 409.42V406.534L239.749 364.578Z" fill="#CCD3E2"/>
<path d="M136.942 406.534V409.642L64.2656 367.464V364.578L136.942 406.534Z" fill="#CCD3E2"/>
<path d="M167.515 406.531V409.417C159.095 414.301 145.357 414.301 136.938 409.417V406.531C145.357 411.415 159.095 411.415 167.515 406.531Z" fill="#CCD3E2"/>
<path d="M239.755 346.822C248.175 351.706 248.175 359.697 239.755 364.581L167.522 406.537C159.102 411.421 145.364 411.421 136.944 406.537L64.268 364.581C55.8482 359.697 55.8482 351.706 64.268 346.822L136.501 304.866C144.921 299.982 158.659 299.982 167.079 304.866L239.755 346.822Z" fill="white"/>
<path d="M205.843 296.43C210.718 297.762 215.814 298.428 220.467 298.206L218.694 301.535C214.041 301.757 208.945 301.091 204.07 299.76C204.735 298.65 205.4 297.54 205.843 296.43Z" fill="white"/>
<path d="M220.694 298.206C230.222 297.984 236.648 294.433 239.528 288.883L237.756 292.213C234.875 297.762 228.228 301.314 218.922 301.536C219.365 300.648 220.03 299.316 220.694 298.206Z" fill="white"/>
<path d="M168.84 270.457C176.152 282.445 190.997 292.434 206.064 296.43C205.4 297.54 204.957 298.65 204.292 299.76C189.446 295.764 174.601 285.775 167.067 273.787C162.193 265.796 161.528 258.47 164.408 253.142L166.181 249.812C163.301 255.14 163.965 262.466 168.84 270.457Z" fill="white"/>
<path d="M164.406 253.138L166.179 249.808C169.059 244.258 175.707 240.706 185.013 240.484L183.24 243.814C173.712 244.258 167.287 247.81 164.406 253.138Z" fill="#E8EFF9"/>
<path d="M158.43 247.371L160.202 244.041C163.969 236.715 172.832 232.053 185.24 231.609L183.468 234.939C170.838 235.605 162.196 240.267 158.43 247.371Z" fill="url(#paint3_linear_1728_86709)"/>
<path d="M183.248 243.822C202.082 243.156 225.347 255.809 235.096 271.571C244.846 287.554 237.534 300.873 218.921 301.539C200.088 302.205 177.044 289.774 167.073 273.791C157.102 257.807 164.414 244.488 183.248 243.822Z" fill="#E8EFF9"/>
<path d="M239.522 288.887L237.749 292.217C240.63 286.89 239.965 279.564 235.091 271.572C225.341 255.589 202.076 243.158 183.242 243.824L185.015 240.494C203.849 239.828 227.114 252.481 236.863 268.243C241.738 276.234 242.403 283.56 239.522 288.887Z" fill="#E8EFF9"/>
<path d="M257.248 295.986L255.475 299.316C259.242 292.212 258.356 282.444 251.93 272.011C238.857 250.922 208.28 234.495 183.242 235.161L185.015 231.831C209.831 230.943 240.63 247.592 253.703 268.681C260.35 279.114 261.015 288.66 257.248 295.986Z" fill="url(#paint4_linear_1728_86709)"/>
<path d="M183.465 235.159C208.282 234.271 239.08 250.92 252.153 272.009C265.226 293.098 255.477 310.857 230.661 311.745C205.844 312.633 175.046 295.984 162.194 274.895C148.9 253.584 158.649 235.825 183.465 235.159ZM218.696 301.756C237.529 301.09 244.841 287.77 234.871 271.787C225.121 255.804 201.856 243.373 183.022 244.038C164.188 244.704 156.876 258.024 166.847 274.007C176.818 289.768 200.083 302.2 218.696 301.756Z" fill="white"/>
<path d="M165.077 253.36L165.742 252.25C162.418 258.244 163.304 266.457 168.622 275.337C179.479 293.096 205.625 307.081 226.675 306.415L226.01 307.525C204.96 308.191 179.036 294.206 167.957 276.447C162.64 267.567 161.975 259.354 165.077 253.36Z" fill="#CAAEFF"/>
<path d="M247.714 295.984L247.05 297.094C243.726 303.31 236.414 307.306 226 307.528L226.665 306.418C237.079 305.974 244.391 302.2 247.714 295.984Z" fill="#CAAEFF"/>
<path d="M162.414 251.811L163.079 250.701C166.624 244.263 174.379 239.824 185.679 239.602L185.015 240.712C173.714 241.155 165.959 245.373 162.414 251.811Z" fill="#CAAEFF"/>
<path d="M250.602 297.539L249.937 298.649C253.482 292.211 252.596 283.553 246.835 274.008C235.091 254.917 207.395 240.044 185.016 240.71L185.68 239.6C208.059 238.934 235.756 253.807 247.5 272.898C253.261 282.222 253.925 290.879 250.602 297.539Z" fill="#CAAEFF"/>
<path d="M185.016 240.709C207.395 240.043 235.091 254.916 246.835 274.007C258.578 293.098 249.715 309.082 227.336 309.748C204.957 310.414 177.261 295.54 165.517 276.449C153.774 257.358 162.637 241.375 185.016 240.709ZM226.007 307.528C247.056 306.862 255.255 291.767 244.176 274.007C233.319 256.248 207.173 242.263 186.124 242.929C165.074 243.595 156.876 258.69 167.954 276.449C179.033 294.208 204.957 308.194 226.007 307.528Z" fill="#5618B8"/>
<path d="M182.797 275.12L183.462 274.01L190.33 272.234L189.666 273.344L182.797 275.12Z" fill="#CAAEFF"/>
<path d="M206.734 274.454L207.399 273.344L211.831 285.331L211.166 286.441L206.734 274.454Z" fill="#CAAEFF"/>
<path d="M234.867 285.766L235.532 284.656L238.855 293.98L238.412 295.09L234.867 285.766Z" fill="#CAAEFF"/>
<path d="M211.156 286.432L211.821 285.322L235.529 284.656L234.865 285.766L211.156 286.432Z" fill="#CAAEFF"/>
<path d="M211.828 267.344L212.271 266.234L215.373 271.118L214.709 272.228L211.828 267.344Z" fill="#CAAEFF"/>
<path d="M204.953 269.12L205.618 268.01L212.265 266.234L211.822 267.344L204.953 269.12Z" fill="#CAAEFF"/>
<path d="M197.865 250.031L204.956 269.122L211.824 267.346L214.705 272.23L206.728 274.45L211.16 286.437L234.868 285.771L238.413 295.095L198.087 296.427L191.661 278.446L185.9 280L182.798 275.116L189.667 273.34L181.469 250.697L197.865 250.031Z" fill="#5618B8"/>
<path d="M197.867 250.032L198.532 248.922L205.622 268.013L204.958 269.123L197.867 250.032Z" fill="#CAAEFF"/>
<path d="M181.469 250.698L181.912 249.366L198.53 248.922L197.865 250.032L181.469 250.698Z" fill="#CAAEFF"/>
<path d="M192.331 333.724C192.331 333.502 192.331 333.502 192.109 333.28C192.109 331.948 192.109 330.394 192.109 329.062C192.109 329.284 192.109 329.284 192.331 329.506C192.331 330.838 192.331 332.17 192.331 333.724Z" fill="white"/>
<path d="M192.336 333.721C192.336 333.499 192.336 333.499 192.336 333.277C192.336 331.945 192.336 330.613 192.336 329.281C192.779 330.835 193.001 332.389 193.001 334.165C193.001 335.497 193.001 337.051 193.001 338.383C193.222 336.829 193.001 335.275 192.336 333.721Z" fill="white"/>
<path d="M113.011 319.295C103.927 324.623 99.495 331.505 99.2734 338.386V334.169C99.2734 327.287 103.927 320.405 113.011 315.078C131.18 304.422 160.871 304.422 179.262 315.078C186.131 319.073 190.562 323.957 192.335 329.063C192.335 330.395 192.335 331.949 192.335 333.281C190.562 328.175 186.352 323.291 179.262 319.295C160.871 308.64 131.18 308.64 113.011 319.295Z" fill="white"/>
<path d="M193.218 334.394V338.612C193.218 345.493 188.565 352.375 179.48 357.703C161.311 368.358 131.62 368.358 113.23 357.703C103.923 352.375 99.2704 345.271 99.4919 338.39V334.172C99.4919 341.276 104.145 348.157 113.23 353.485C131.62 364.14 161.311 364.14 179.48 353.485C188.565 348.157 193.218 341.276 193.218 334.394Z" fill="#E8EFF9"/>
<path d="M179.264 314.851C197.655 325.506 197.655 342.822 179.486 353.255C161.317 363.911 131.626 363.911 113.235 353.255C94.8442 342.6 94.8442 325.284 113.013 314.851C131.182 304.196 160.873 304.196 179.264 314.851Z" fill="#E8EFF9"/>
<path d="M209.175 336.163V340.381C209.175 349.482 203.193 358.584 191.228 365.687C167.076 379.673 127.858 379.673 103.484 365.687C91.2978 358.584 85.0938 349.26 85.0938 339.937V335.719C85.0938 345.042 91.0763 354.366 103.484 361.469C127.858 375.455 167.076 375.455 191.228 361.469C203.193 354.366 209.175 345.264 209.175 336.163Z" fill="url(#paint5_linear_1728_86709)"/>
<path d="M191.001 310.416C215.375 324.401 215.375 347.266 191.223 361.474C167.071 375.681 127.853 375.459 103.48 361.474C79.1064 347.488 79.1064 324.623 103.258 310.416C127.41 296.209 166.628 296.431 191.001 310.416ZM113.229 353.482C131.619 364.137 161.31 364.137 179.48 353.482C197.649 342.827 197.649 325.511 179.258 315.078C160.867 304.422 131.176 304.422 113.007 315.078C94.6166 325.511 94.8382 342.827 113.229 353.482Z" fill="white"/>
<path d="M198.761 335.727V337.059C198.761 329.29 193.664 321.298 183.25 315.304C162.644 303.539 129.408 303.539 109.023 315.304C98.8306 321.298 93.7344 328.846 93.7344 336.615V335.283C93.7344 327.514 98.8306 319.744 109.023 313.973C129.408 302.207 162.644 302.207 183.25 313.973C193.664 320.188 198.761 327.958 198.761 335.727Z" fill="#CAAEFF"/>
<path d="M202.305 335.722V337.054C202.305 345.268 196.766 353.481 186.13 359.919C164.416 372.572 128.964 372.572 107.028 359.919C95.9492 353.481 90.4098 345.268 90.6314 336.832V335.5C90.6314 343.936 96.1708 352.149 107.028 358.587C128.964 371.24 164.416 371.24 186.13 358.587C196.766 352.371 202.305 344.158 202.305 335.722Z" fill="#CAAEFF"/>
<path d="M185.688 312.638C207.624 325.292 207.624 345.937 185.91 358.59C164.196 371.244 128.744 371.244 106.808 358.59C84.872 345.937 84.872 325.292 106.586 312.638C128.301 299.985 163.752 299.985 185.688 312.638ZM109.245 357.258C129.852 369.024 163.088 369.024 183.473 357.258C203.857 345.493 203.857 325.958 183.251 314.192C162.645 302.427 129.408 302.427 109.024 314.192C88.6387 325.958 88.8603 345.271 109.245 357.258Z" fill="#5618B8"/>
<path d="M136.282 341.936V343.49L127.641 324.843V323.289L136.282 341.936Z" fill="#CAAEFF"/>
<path d="M168.41 346.821L136.282 341.937L127.641 323.29L181.04 315.742L168.41 346.821Z" fill="#5618B8"/>
<path d="M168.402 346.821V348.375L136.273 343.491V341.938L168.402 346.821Z" fill="#CAAEFF"/>
<path d="M181.036 315.742V317.296L168.406 348.375V346.821L181.036 315.742Z" fill="#CAAEFF"/>
<path d="M166.853 349.703V351.257L115.891 355.253V353.699L166.853 349.703Z" fill="#CAAEFF"/>
<path d="M131.844 344.381L166.853 349.708L115.891 353.704L122.759 324.18L131.844 344.381Z" fill="#5618B8"/>
<path d="M95.2782 240.93C100.153 242.706 105.028 244.038 109.681 244.26L107.465 247.367C102.812 246.923 97.9371 245.813 93.0625 244.038C93.7272 243.15 94.3919 242.04 95.2782 240.93Z" fill="white"/>
<path d="M60.9367 211.406C66.9192 224.059 80.6568 235.603 95.0592 241.153C94.3944 242.263 93.7297 243.15 92.8434 244.26C78.4411 238.711 64.7035 227.167 58.721 214.514C54.7326 206.078 54.7326 198.753 58.2778 193.647L60.4936 190.539C57.1699 195.645 56.9484 202.97 60.9367 211.406Z" fill="white"/>
<path d="M109.466 244.482C118.993 245.148 125.862 242.262 129.186 237.156L126.97 240.264C123.425 245.37 116.556 248.256 107.25 247.59C108.136 246.702 109.023 245.37 109.466 244.482Z" fill="white"/>
<path d="M58.5 193.653L60.7157 190.545C64.2609 185.44 71.1297 182.554 80.4359 183.22L78.2201 186.328C68.6924 185.662 61.8236 188.548 58.5 193.653Z" fill="#E8EFF9"/>
<path d="M48.3125 185.658L50.5282 182.55C55.1813 175.668 64.2658 171.894 76.674 173.004L74.4583 176.112C61.8285 175.002 52.744 178.776 48.3125 185.658Z" fill="url(#paint6_linear_1728_86709)"/>
<path d="M129.402 237.159L127.187 240.267C130.51 235.161 130.732 227.835 126.744 219.4C118.545 202.751 96.831 187.877 78.2188 186.545L80.4345 183.438C99.0467 184.769 120.983 199.643 128.959 216.514C132.948 224.728 132.726 232.053 129.402 237.159Z" fill="#E8EFF9"/>
<path d="M74.4547 175.888C99.271 177.664 128.076 197.421 138.711 219.62C149.347 242.04 138.047 258.69 113.23 256.692C88.4139 254.916 59.6092 235.159 48.9736 212.96C38.1165 190.761 49.6383 174.112 74.4547 175.888ZM107.469 247.59C126.081 248.922 134.944 236.491 126.746 219.62C118.548 202.748 96.8337 187.875 78.2214 186.543C59.6092 185.211 50.7462 197.643 58.9445 214.514C66.9211 231.385 88.6354 246.258 107.469 247.59Z" fill="white"/>
<path d="M78.2177 186.551C96.8299 187.883 118.766 202.756 126.742 219.627C134.719 236.499 126.078 249.152 107.466 247.598C88.8533 246.266 66.9174 231.393 58.9407 214.522C50.7425 197.65 59.3839 184.997 78.2177 186.551Z" fill="#E8EFF9"/>
<path d="M141.371 244.04L139.156 247.148C143.587 240.488 143.809 230.72 138.491 219.621C127.855 197.2 99.0507 177.665 74.2344 175.889L76.4501 172.781C101.266 174.557 130.071 194.314 140.707 216.513C146.024 227.613 145.803 237.38 141.371 244.04Z" fill="url(#paint7_linear_1728_86709)"/>
<path d="M53.8533 192.547L54.5181 191.438C50.7513 197.209 50.5297 205.201 54.9612 214.746C64.0457 233.615 88.4189 250.265 109.247 251.819L108.582 252.929C87.7542 251.375 63.381 234.725 54.2965 215.856C49.865 206.533 50.0866 198.319 53.8533 192.547Z" fill="#CAAEFF"/>
<path d="M131.619 243.602L130.954 244.712C126.966 250.483 119.432 253.591 108.797 252.925L109.462 251.815C119.876 252.481 127.631 249.373 131.619 243.602Z" fill="#CAAEFF"/>
<path d="M51.4141 190.769L52.0788 189.659C56.2887 183.443 64.4869 180.113 75.5657 181.001L74.9009 182.111C63.6007 181.223 55.4024 184.775 51.4141 190.769Z" fill="#CAAEFF"/>
<path d="M134.064 245.377L133.399 246.487C137.387 240.493 137.609 231.614 132.956 221.624C123.428 201.423 97.2824 183.886 75.125 182.11L75.7897 181C98.1687 182.554 124.093 200.313 133.621 220.514C138.274 230.504 138.274 239.383 134.064 245.377Z" fill="#CAAEFF"/>
<path d="M74.8996 182.111C97.2786 183.665 123.203 201.424 132.73 221.625C142.258 241.826 132.066 256.7 109.687 255.146C87.3077 253.592 61.3835 235.833 51.8558 215.632C42.3281 195.431 52.5206 180.558 74.8996 182.111ZM108.8 252.926C129.628 254.48 139.378 240.495 130.293 221.625C121.209 202.756 96.8354 186.107 76.0074 184.553C55.1795 182.999 45.4302 196.985 54.5147 215.854C63.5993 234.723 87.7509 251.372 108.8 252.926Z" fill="#5618B8"/>
<path d="M93.9564 235.39L93.2917 236.5C94.3996 234.724 94.6211 232.282 93.0701 229.174C92.4054 228.064 91.7407 226.954 90.6328 225.844L91.2975 224.734C92.1838 225.844 93.0701 226.954 93.7348 228.064C95.2859 230.95 95.0643 233.614 93.9564 235.39Z" fill="#CAAEFF"/>
<path d="M69.1406 220.072L69.8053 218.962C70.9132 217.186 73.3505 216.076 76.6742 216.52C80.2193 216.742 84.2077 218.518 87.3097 220.738L86.645 221.848C83.543 219.628 79.5546 217.852 76.0094 217.63C72.9074 217.408 70.4701 218.296 69.1406 220.072Z" fill="#CAAEFF"/>
<path d="M91.5124 218.297L90.8477 219.407C90.4046 220.073 89.0751 220.517 86.8594 222.071L87.5241 220.961C89.7398 219.407 91.0693 218.963 91.5124 218.297Z" fill="#CAAEFF"/>
<path d="M92.8438 213.188L93.5085 212.078C97.4968 220.292 94.3948 217.406 104.366 222.068L103.701 223.178C93.9516 218.294 96.8321 221.402 92.8438 213.188Z" fill="#CAAEFF"/>
<path d="M103.922 222.954L104.587 221.844C105.916 220.068 108.353 218.736 111.677 219.18C118.103 219.624 125.636 224.952 128.517 230.723C129.846 233.609 129.846 236.273 128.738 238.049L128.073 239.159C129.181 237.383 129.403 234.719 127.852 231.833C124.971 226.061 117.438 220.734 111.012 220.29C107.689 219.846 105.251 221.178 103.922 222.954Z" fill="#CAAEFF"/>
<path d="M73.5703 194.318L74.235 193.208C75.5645 191.432 77.7802 190.322 81.1039 190.544L80.4391 191.654C77.1155 191.654 74.6782 192.542 73.5703 194.318Z" fill="#CAAEFF"/>
<path d="M98.1663 209.635L97.5016 210.745C98.6094 208.969 98.831 206.527 97.28 203.419C94.3995 197.425 86.866 192.32 80.2188 191.876L80.8835 190.766C87.5307 191.21 95.0642 196.315 97.9447 202.309C99.4957 205.195 99.4957 207.859 98.1663 209.635Z" fill="#CAAEFF"/>
<path d="M80.4406 191.876C87.0878 192.32 94.6213 197.426 97.5018 203.419C99.9391 208.525 97.945 212.521 93.0703 213.187C97.0587 221.4 93.9566 218.514 103.927 223.176C105.035 221.178 107.694 219.846 111.239 220.29C117.665 220.734 125.199 226.062 128.079 231.834C130.96 237.828 127.857 242.045 121.432 241.601C114.785 241.157 107.251 236.052 104.371 230.058C103.706 228.948 103.484 227.838 103.263 226.728C98.6097 224.508 96.8371 223.398 95.5076 223.398C94.1782 223.398 93.2919 224.286 90.633 225.84C91.5193 226.95 92.4056 228.06 93.0703 229.17C95.9508 235.164 92.8487 239.381 86.4231 238.937C79.7759 238.494 72.2423 233.388 69.3619 227.394C66.4814 221.622 69.5834 217.183 76.0091 217.627C79.5543 217.849 83.5426 219.624 86.6447 221.844C91.9624 218.514 91.9624 220.29 88.4172 212.743C82.4347 211.411 76.2307 206.749 73.5718 201.421C70.9129 195.65 74.0149 191.432 80.4406 191.876Z" fill="#5618B8"/>
<path d="M235.984 173.898C239.529 165.241 239.086 157.915 235.319 153.031L237.535 156.139C241.302 161.023 241.745 168.348 238.199 177.006C231.109 194.321 210.281 210.304 191.669 212.746L189.453 209.638C208.065 207.197 228.893 191.213 235.984 173.898Z" fill="white"/>
<path d="M169.289 203.422C173.056 208.306 180.146 210.748 189.452 209.638L191.668 212.745C182.362 214.077 175.272 211.635 171.505 206.53C171.062 205.642 169.954 204.532 169.289 203.422Z" fill="white"/>
<path d="M235.319 153.027L237.535 156.135C233.768 151.251 226.678 148.809 217.372 149.919L215.156 146.811C224.462 145.701 231.553 148.143 235.319 153.027Z" fill="#E8EFF9"/>
<path d="M254.151 144.592L256.367 147.7C251.493 141.262 242.186 137.932 229.778 139.486L227.562 136.378C239.749 134.824 249.055 137.932 254.151 144.592Z" fill="url(#paint8_linear_1728_86709)"/>
<path d="M217.595 149.917C236.207 147.475 245.513 159.463 238.423 176.778C231.333 194.093 210.505 210.076 191.892 212.518C173.28 214.96 163.974 202.973 171.064 185.657C178.155 168.342 198.983 152.359 217.595 149.917Z" fill="#E8EFF9"/>
<path d="M171.728 206.528L169.512 203.42C165.745 198.536 165.302 191.21 168.847 182.553C175.938 165.238 196.766 149.254 215.378 146.812L217.594 149.92C198.981 152.362 178.153 168.345 171.063 185.661C167.518 194.318 167.961 201.644 171.728 206.528Z" fill="#E8EFF9"/>
<path d="M169.068 214.296L166.852 211.189C161.977 204.751 161.313 194.983 165.966 183.662C175.272 160.797 202.969 139.486 227.564 136.156L229.779 139.264C205.184 142.594 177.488 163.683 168.182 186.77C163.307 198.091 164.193 207.859 169.068 214.296Z" fill="url(#paint9_linear_1728_86709)"/>
<path d="M229.784 139.486C254.379 136.156 266.787 152.139 257.481 175.004C248.174 197.869 220.478 219.18 195.883 222.51C171.288 225.84 158.88 209.856 168.186 186.991C177.492 163.905 204.967 142.594 229.784 139.486ZM191.895 212.742C210.507 210.3 231.335 194.317 238.425 177.002C245.516 159.687 236.209 147.699 217.597 150.141C198.985 152.583 178.157 168.566 171.067 185.881C163.976 203.197 173.282 215.184 191.895 212.742Z" fill="white"/>
<path d="M247.949 153.914L248.614 155.024C252.824 160.574 253.267 168.565 249.5 178.333C241.524 197.646 218.258 215.627 197.43 218.291L196.766 217.181C217.594 214.517 240.859 196.536 248.836 177.223C252.824 167.677 252.159 159.464 247.949 153.914Z" fill="#CAAEFF"/>
<path d="M175.04 211.407L174.375 210.297C178.585 215.847 186.34 218.51 196.976 217.179L197.64 218.289C187.005 219.62 179.25 216.957 175.04 211.407Z" fill="#CAAEFF"/>
<path d="M250.602 152.139L251.267 153.249C246.835 147.256 238.415 144.37 227.337 145.924L226.672 144.814C237.751 143.26 245.949 146.146 250.602 152.139Z" fill="#CAAEFF"/>
<path d="M172.609 213.41L171.944 212.3C167.513 206.529 166.848 197.871 171.058 187.438C179.478 166.793 204.515 147.702 226.673 144.594L227.338 145.704C205.18 148.59 180.142 167.903 171.722 188.548C167.513 198.759 168.177 207.417 172.609 213.41Z" fill="#CAAEFF"/>
<path d="M227.336 145.703C249.494 142.818 260.572 157.247 252.152 177.892C243.733 198.537 218.695 217.628 196.537 220.736C174.38 223.622 163.08 209.192 171.721 188.547C180.141 167.902 205.179 148.811 227.336 145.703ZM197.645 218.294C218.473 215.63 241.738 197.649 249.715 178.336C257.692 159.023 247.278 145.481 226.45 148.145C205.622 150.809 182.357 168.79 174.38 188.103C166.182 207.638 176.817 220.958 197.645 218.294Z" fill="#5618B8"/>
<path d="M220.48 189.875L219.594 188.765L232.223 171.672L232.888 172.56L220.48 189.875Z" fill="#CAAEFF"/>
<path d="M245.739 161.909L246.404 163.019C245.739 161.909 244.188 161.687 241.751 161.909L241.086 160.799C243.302 160.577 244.853 161.021 245.739 161.909Z" fill="#CAAEFF"/>
<path d="M189.008 193.871L188.344 192.983L219.586 188.766L220.472 189.876L189.008 193.871Z" fill="#CAAEFF"/>
<path d="M181.258 204.75L180.594 203.64L188.349 192.984L189.014 193.872L181.258 204.75Z" fill="#CAAEFF"/>
<path d="M201.641 176.778L200.977 175.89L208.51 165.234L209.396 166.122L201.641 176.778Z" fill="#CAAEFF"/>
<path d="M209.402 166.125L208.516 165.237L241.087 160.797L241.752 161.907L209.402 166.125Z" fill="#CAAEFF"/>
<path d="M241.748 161.908C244.628 161.464 246.179 162.13 246.844 163.684C247.287 165.238 246.622 167.458 244.85 170.122L230.669 189.435C228.675 192.099 225.794 194.763 222.692 196.761C219.59 198.759 216.488 200.091 213.608 200.535L181.258 204.752L189.013 194.097L220.255 189.879L232.885 172.786L201.643 177.004L209.398 166.348L241.748 161.908Z" fill="#5618B8"/>
<path fill-rule="evenodd" clip-rule="evenodd" d="M193.007 180.778L214.499 177.227L208.295 188.326L186.359 191.434L193.007 180.778Z" fill="#5618B8"/>
<path d="M114.562 79.5469C122.096 92.6442 132.51 103.966 144.032 110.625L139.157 113.289C127.635 106.63 117.221 95.3081 109.688 82.2107C111.46 81.3228 113.011 80.4348 114.562 79.5469Z" fill="white"/>
<path d="M102.372 38.7012C102.372 52.0205 107.025 66.6718 114.558 79.5472C113.007 80.4351 111.456 81.3231 109.905 82.211C102.372 69.1137 97.7188 54.4624 97.7188 41.3651C97.7188 28.2677 102.372 18.9442 109.905 14.7264L114.558 12.0625C107.025 16.2803 102.372 25.3818 102.372 38.7012Z" fill="white"/>
<path d="M143.809 110.625C155.331 117.285 165.967 117.951 173.5 113.511L168.847 116.175C161.314 120.615 150.9 119.949 139.156 113.289C140.707 112.401 142.48 111.291 143.809 110.625Z" fill="white"/>
<path d="M109.906 14.5059L114.559 11.842C122.093 7.40222 132.507 8.06819 144.25 14.7279L139.597 17.3917C127.854 10.7321 117.44 10.0661 109.906 14.5059Z" fill="#E8EFF9"/>
<path d="M110.125 13.3981L114.778 10.7342C124.749 4.96252 138.708 5.62849 153.997 14.508L149.344 17.1719C133.833 8.51434 120.096 7.62639 110.125 13.3981Z" fill="url(#paint10_linear_1728_86709)"/>
<path d="M139.375 17.3904C162.418 30.7097 181.031 62.8982 180.809 89.3149C180.809 115.732 161.975 126.387 139.153 113.068C116.331 99.9703 97.7188 67.7819 97.7188 41.3652C97.7188 14.7265 116.553 4.07105 139.375 17.3904Z" fill="#E8EFF9"/>
<path d="M173.495 113.516L168.842 116.18C176.375 111.74 181.028 102.639 181.028 89.5415C181.028 63.1248 162.416 30.9363 139.594 17.617L144.247 14.9531C167.291 28.2725 185.903 60.4609 185.681 86.8776C185.681 99.9749 181.028 109.076 173.495 113.516Z" fill="#E8EFF9"/>
<path d="M192.775 145.264L188.122 147.928C197.871 142.156 204.075 129.947 204.075 112.632C204.075 77.5573 179.702 34.9354 149.125 17.3982L153.778 14.7344C184.134 32.2715 208.728 74.8934 208.728 109.968C208.728 127.283 202.524 139.492 192.775 145.264Z" fill="url(#paint11_linear_1728_86709)"/>
<path d="M149.347 17.1698C179.702 34.9289 204.297 77.5508 204.076 112.625C203.854 147.699 179.259 161.685 148.904 144.148C118.548 126.61 93.9531 83.7665 93.9531 48.9142C94.1747 13.8399 118.769 -0.367366 149.347 17.1698ZM139.154 113.291C162.198 126.61 180.81 115.955 180.81 89.5382C180.81 63.1215 162.198 30.9331 139.376 17.6137C116.554 4.07242 97.7199 14.7279 97.7199 41.3666C97.7199 67.7833 116.332 99.9717 139.154 113.291Z" fill="white"/>
<path d="M114.338 25.6067L115.889 24.7188C107.469 29.6025 102.373 40.036 102.373 54.6873C102.373 84.2118 123.201 120.396 148.682 135.269L147.131 136.157C121.428 121.284 100.6 85.0998 100.822 55.5752C100.822 40.702 105.918 30.4905 114.338 25.6067Z" fill="#CAAEFF"/>
<path d="M181.698 138.377L180.147 139.265C171.728 144.148 159.984 143.482 147.133 135.935L148.684 135.047C161.535 142.595 173.279 143.26 181.698 138.377Z" fill="#CAAEFF"/>
<path d="M112.125 21.8325L113.676 20.9446C122.761 15.6169 135.169 16.5048 148.906 24.2744L147.355 25.1624C133.618 17.1708 121.21 16.5048 112.125 21.8325Z" fill="#CAAEFF"/>
<path d="M183.911 142.15L182.36 143.038C191.223 137.932 196.763 126.832 196.763 111.071C196.763 79.5487 174.605 40.9226 147.352 25.1614L148.903 24.2734C176.378 40.0347 198.535 78.6608 198.535 110.183C198.535 125.944 192.996 136.822 183.911 142.15Z" fill="#CAAEFF"/>
<path d="M147.353 25.1669C174.828 40.9281 196.986 79.5542 196.986 111.077C196.986 142.599 174.607 155.253 147.131 139.491C119.656 123.73 97.4988 85.104 97.7204 53.5815C97.7204 22.0591 120.099 9.40567 147.353 25.1669ZM147.131 135.939C172.834 150.813 193.662 138.825 193.884 109.301C193.884 79.7762 173.056 43.592 147.575 28.7187C122.094 13.8455 101.044 25.8329 100.822 55.3574C100.601 84.882 121.429 121.066 147.131 135.939Z" fill="#5618B8"/>
<path d="M117.656 89.5364L119.207 88.6484L128.292 93.9762L126.741 94.8641L117.656 89.5364Z" fill="#CAAEFF"/>
<path d="M142.922 116.396L144.473 115.508V124.387L142.922 125.275V116.396Z" fill="#CAAEFF"/>
<path d="M156.875 123.497L158.426 122.609L158.204 132.377L156.875 133.265V123.497Z" fill="#5618B8"/>
<path d="M139.594 102.185L141.145 101.297L149.565 106.181L148.014 107.069L139.594 102.185Z" fill="#CAAEFF"/>
<path d="M139.594 83.9817L141.145 83.0938V101.297L139.594 102.185V83.9817Z" fill="#5618B8"/>
<path d="M157.762 107.963L156.211 108.851C155.989 108.851 155.768 109.073 155.768 109.073C154.217 109.739 151.558 109.073 148.234 107.075L149.785 106.188C153.109 108.185 155.546 108.851 157.319 108.185C157.319 108.185 157.54 107.963 157.762 107.963Z" fill="#CAAEFF"/>
<path d="M139.594 72.4426L141.145 71.5547L148.457 75.7725L146.906 76.6604L139.594 72.4426Z" fill="#CAAEFF"/>
<path d="M139.594 56.9036L141.145 56.0156V71.5549L139.594 72.4428V56.9036Z" fill="#CAAEFF"/>
<path d="M146.906 76.6614L148.457 75.7734C148.9 75.9954 149.344 76.2174 149.565 76.4394C152.446 77.9933 154.44 78.6593 155.991 78.2153L154.44 79.1033C153.11 79.3253 150.895 78.8813 148.014 77.3274C147.793 77.1054 147.349 76.8834 146.906 76.6614Z" fill="#CAAEFF"/>
<path d="M160.641 89.7584L162.192 88.6484V89.3144L160.641 90.2024V89.7584Z" fill="#5618B8"/>
<path d="M156.872 77.9922L155.321 78.8801C155.099 79.1021 154.878 79.1021 154.656 79.1021L156.207 78.2142C156.429 78.2142 156.65 78.2142 156.872 77.9922Z" fill="#5618B8"/>
<path d="M117.875 32.263L119.426 31.375L136.044 41.1425L134.493 42.0305L117.875 32.263Z" fill="#CAAEFF"/>
<path d="M168.614 122.388L167.062 123.276C169.943 121.5 171.494 117.949 171.494 112.621C171.494 108.181 170.608 104.185 169.057 100.411L170.608 99.5234C172.38 103.297 173.045 107.293 173.045 111.733C173.045 117.061 171.494 120.612 168.614 122.388Z" fill="#CAAEFF"/>
<path d="M160.641 90.2005L162.192 89.3125C165.958 92.4203 168.839 95.9722 170.39 99.524L168.839 100.412C167.288 96.8601 164.407 93.3083 160.641 90.2005Z" fill="#CAAEFF"/>
<path d="M143.141 46.9192L144.692 46.0312L147.129 47.5852L145.578 48.4731L143.141 46.9192Z" fill="#CAAEFF"/>
<path d="M145.578 48.4661L147.129 47.5781C148.015 48.0221 148.902 48.6881 149.788 49.1321L148.237 50.02C147.351 49.354 146.464 48.9101 145.578 48.4661Z" fill="#CAAEFF"/>
<path d="M134.5 32.9348L136.051 32.0469L144.692 37.1526L143.141 38.0406L134.5 32.9348Z" fill="#CAAEFF"/>
<path d="M143.141 38.0286L144.692 37.1406V46.0202L143.141 46.9081V38.0286Z" fill="#CAAEFF"/>
<path d="M167.951 88.6454L166.4 89.5333C166.843 89.3113 167.065 89.0893 167.508 88.6454C169.28 87.0914 170.167 83.9836 170.167 79.9878C170.167 73.7721 168.172 68.2224 164.406 63.3386C162.633 60.8967 160.196 58.4548 157.094 56.013L158.645 55.125C161.525 57.5669 163.963 60.0088 165.957 62.4506C169.723 67.5564 171.718 73.1061 171.718 79.0998C171.718 83.3176 170.831 86.2035 169.059 87.7574C168.616 88.2014 168.172 88.4234 167.951 88.6454Z" fill="#CAAEFF"/>
<path d="M157.097 46.0286L158.648 45.1406L158.426 55.1301L156.875 56.0181L157.097 46.0286Z" fill="#CAAEFF"/>
<path d="M148.234 40.9192L149.785 40.0312L158.648 45.137L157.097 46.025L148.234 40.9192Z" fill="#CAAEFF"/>
<path d="M168.84 100.413C170.613 104.187 171.277 108.183 171.277 112.622C171.277 118.838 169.283 122.834 165.295 123.944C162.857 124.61 159.977 124.61 156.653 123.5V133.267L148.012 128.162V119.282L142.916 116.396V125.276L134.274 120.17V111.29L117.656 101.745V89.7576L126.741 94.8633L126.962 49.5775L117.878 44.4718V32.4844L134.496 42.0299V33.1503L143.137 38.2561V47.1357L145.575 48.4676C146.461 48.9116 147.347 49.5775 148.234 50.0215V40.92L156.875 46.0257V56.0152C159.755 58.4571 162.193 60.899 164.187 63.3409C167.954 68.4466 169.948 73.9963 169.948 79.99C169.948 84.2078 169.062 87.0937 167.289 88.6476C165.516 90.4235 163.301 90.6455 160.642 89.5356V89.9795C164.408 93.3094 167.289 96.8612 168.84 100.413ZM156.875 108.405C157.761 107.517 158.204 105.963 158.204 103.521C158.204 101.523 157.761 99.7471 156.875 97.7492C155.324 94.4193 152.443 91.5335 148.234 89.0916C148.012 88.8696 147.79 88.8696 147.569 88.6476L139.592 83.9858V101.967L148.234 106.851C151.557 108.849 153.994 109.515 155.767 108.849C155.989 108.849 156.432 108.627 156.875 108.405ZM139.592 56.9032V72.2204L146.904 76.4382C147.347 76.6602 147.79 76.8822 148.012 77.1042C150.892 78.6581 152.887 79.3241 154.438 78.8801C155.989 78.4361 156.875 76.8822 156.875 73.9963C156.875 71.3325 155.989 68.8906 154.438 66.8927C153.108 65.1168 151.114 63.3409 148.455 61.7869C147.79 61.343 147.126 60.899 146.461 60.677L139.592 56.9032Z" fill="#5618B8"/>
<path d="M19.5 344.827V0.078125H285.168L284.946 345.049L277.856 354.817L176.153 414.754C161.972 423.855 144.025 423.855 129.844 414.976L26.5904 354.817L19.5 344.827Z" fill="url(#paint12_linear_1728_86709)"/>
<defs>
<linearGradient id="paint0_linear_1728_86709" x1="0.274574" y1="426.363" x2="303.681" y2="426.363" gradientUnits="userSpaceOnUse">
<stop stop-color="#5618B8"/>
<stop offset="1" stop-color="#C7D7FF"/>
</linearGradient>
<linearGradient id="paint1_linear_1728_86709" x1="0.553637" y1="393.808" x2="303.96" y2="393.808" gradientUnits="userSpaceOnUse">
<stop stop-color="#5618B8"/>
<stop offset="1" stop-color="#C7D7FF"/>
</linearGradient>
<linearGradient id="paint2_linear_1728_86709" x1="0.731839" y1="360.51" x2="304.138" y2="360.51" gradientUnits="userSpaceOnUse">
<stop stop-color="#5618B8"/>
<stop offset="1" stop-color="#C7D7FF"/>
</linearGradient>
<linearGradient id="paint3_linear_1728_86709" x1="158.875" y1="233.844" x2="263.038" y2="279.975" gradientUnits="userSpaceOnUse">
<stop stop-color="#5618B8"/>
<stop offset="1" stop-color="#C7D7FF"/>
</linearGradient>
<linearGradient id="paint4_linear_1728_86709" x1="158.625" y1="234.399" x2="262.788" y2="280.529" gradientUnits="userSpaceOnUse">
<stop stop-color="#5618B8"/>
<stop offset="1" stop-color="#C7D7FF"/>
</linearGradient>
<linearGradient id="paint5_linear_1728_86709" x1="85.0931" y1="356.007" x2="209.286" y2="356.007" gradientUnits="userSpaceOnUse">
<stop stop-color="#5618B8"/>
<stop offset="1" stop-color="#C7D7FF"/>
</linearGradient>
<linearGradient id="paint6_linear_1728_86709" x1="62.1937" y1="179.043" x2="162.589" y2="231.186" gradientUnits="userSpaceOnUse">
<stop stop-color="#5618B8"/>
<stop offset="1" stop-color="#C7D7FF"/>
</linearGradient>
<linearGradient id="paint7_linear_1728_86709" x1="60.5116" y1="182.276" x2="160.907" y2="234.42" gradientUnits="userSpaceOnUse">
<stop stop-color="#5618B8"/>
<stop offset="1" stop-color="#C7D7FF"/>
</linearGradient>
<linearGradient id="paint8_linear_1728_86709" x1="174.779" y1="111.985" x2="257.249" y2="146.959" gradientUnits="userSpaceOnUse">
<stop stop-color="#5618B8"/>
<stop offset="1" stop-color="#C7D7FF"/>
</linearGradient>
<linearGradient id="paint9_linear_1728_86709" x1="155.612" y1="157.183" x2="238.083" y2="192.157" gradientUnits="userSpaceOnUse">
<stop stop-color="#5618B8"/>
<stop offset="1" stop-color="#C7D7FF"/>
</linearGradient>
<linearGradient id="paint10_linear_1728_86709" x1="135.009" y1="25.0385" x2="173.977" y2="165.774" gradientUnits="userSpaceOnUse">
<stop stop-color="#5618B8"/>
<stop offset="1" stop-color="#C7D7FF"/>
</linearGradient>
<linearGradient id="paint11_linear_1728_86709" x1="167.539" y1="16.0366" x2="206.507" y2="156.772" gradientUnits="userSpaceOnUse">
<stop stop-color="#5618B8"/>
<stop offset="1" stop-color="#C7D7FF"/>
</linearGradient>
<linearGradient id="paint12_linear_1728_86709" x1="158.52" y1="49.4179" x2="138.825" y2="439.769" gradientUnits="userSpaceOnUse">
<stop stop-color="#4076BC" stop-opacity="0"/>
<stop offset="1" stop-color="white"/>
</linearGradient>
</defs>
</svg>
