<svg width="67" height="67" viewBox="0 0 67 67" fill="none" xmlns="http://www.w3.org/2000/svg">
<path d="M33.4844 66.3125C15.3444 66.3125 0.640625 51.6088 0.640625 33.4688C0.640625 15.3287 15.3444 0.625 33.4844 0.625C51.6244 0.625 66.3281 15.3287 66.3281 33.4688C66.3281 51.6088 51.6244 66.3125 33.4844 66.3125ZM25.5116 30.1926L33.4844 22.2198L41.4613 30.1967L46.1005 25.5575L33.4844 12.9414L20.8724 25.5534L25.5116 30.1926ZM12.957 33.4688L17.5962 38.1079L22.2354 33.4688L17.5962 28.8296L12.957 33.4688ZM25.5116 36.7449L20.8662 41.3779L20.8724 41.3841L33.4844 53.9961L46.1005 41.38V41.3779L41.4613 36.7388L33.4844 44.7177L25.5116 36.7449ZM44.7334 33.4688L49.3725 38.1079L54.0117 33.4688L49.3725 28.8296L44.7334 33.4688ZM38.1892 33.4646H38.1913L33.4844 28.7598L30.005 32.2371L29.6047 32.6374L28.7816 33.4626L28.7733 33.4688L28.7816 33.4749L33.4823 38.1777L38.1913 33.4708L38.1933 33.4688L38.1892 33.4667V33.4646Z" fill="#EBB800"/>
</svg>
