<svg width="43" height="37" viewBox="0 0 43 37" fill="none" xmlns="http://www.w3.org/2000/svg">
<path d="M40.337 1.75063C39.8712 1.42471 39.3457 1.19375 38.7906 1.07094C38.2355 0.948131 37.6617 0.935884 37.1019 1.0349C36.5421 1.13391 36.0072 1.34225 35.5279 1.648C35.0487 1.95376 34.6343 2.35094 34.3086 2.81687L17.8513 26.3201L7.0607 18.9492C6.19525 18.3572 5.13008 18.1332 4.09952 18.3266C3.06895 18.5199 2.1574 19.1148 1.56541 19.9802C0.973413 20.8457 0.749461 21.9108 0.942819 22.9414C1.13618 23.972 1.73101 24.8835 2.59645 25.4755L17.0607 35.3551C17.5062 35.6592 18.0096 35.8681 18.5395 35.9687C19.0694 36.0693 19.6144 36.0595 20.1403 35.9399C20.7013 35.8418 21.2374 35.634 21.7179 35.3284C22.1984 35.0227 22.6139 34.6252 22.9404 34.1587L41.4039 7.78232C42.0619 6.84048 42.3191 5.67591 42.1189 4.54454C41.9187 3.41316 41.2776 2.40754 40.3363 1.74866" fill="#183B56"/>
</svg>
