<svg width="20" height="20" viewBox="0 0 20 20" fill="none" xmlns="http://www.w3.org/2000/svg">
<path d="M16.9016 19.2633H2.11954C1.55947 19.2633 1.02235 19.0408 0.626322 18.6448C0.230297 18.2488 0.0078125 17.7117 0.0078125 17.1516V12.9282H2.11954V17.1516H16.9016V2.36954H2.11954V6.59298H0.0078125V2.36954C0.0078125 1.80947 0.230297 1.27235 0.626322 0.876322C1.02235 0.480297 1.55947 0.257813 2.11954 0.257812H16.9016C17.4617 0.257813 17.9988 0.480297 18.3948 0.876322C18.7908 1.27235 19.0133 1.80947 19.0133 2.36954V17.1516C19.0133 17.7117 18.7908 18.2488 18.3948 18.6448C17.9988 19.0408 17.4617 19.2633 16.9016 19.2633ZM8.45471 13.984V10.8164H0.0078125V8.70471H8.45471V5.53712L13.734 9.76057L8.45471 13.984Z" fill="white"/>
</svg>
