<svg width="18" height="18" viewBox="0 0 18 18" fill="none" xmlns="http://www.w3.org/2000/svg">
<path d="M15.652 17.336H2.49653C1.9981 17.336 1.52008 17.138 1.16764 16.7855C0.815189 16.4331 0.617188 15.9551 0.617188 15.4566V11.698H2.49653V15.4566H15.652V2.30122H2.49653V6.05991H0.617188V2.30122C0.617188 1.80279 0.815189 1.32477 1.16764 0.972323C1.52008 0.619877 1.9981 0.421875 2.49653 0.421875H15.652C16.1504 0.421875 16.6284 0.619877 16.9809 0.972323C17.3333 1.32477 17.5313 1.80279 17.5313 2.30122V15.4566C17.5313 15.9551 17.3333 16.4331 16.9809 16.7855C16.6284 17.138 16.1504 17.336 15.652 17.336ZM8.13457 12.6376V9.81861H0.617188V7.93926H8.13457V5.12024L12.8329 8.87893L8.13457 12.6376Z" fill="#566FFE"/>
</svg>
