<svg width="40" height="40" viewBox="0 0 40 40" fill="none" xmlns="http://www.w3.org/2000/svg">
<path d="M5.83594 5.91651C5.83594 4.43023 6.42636 3.00483 7.47731 1.95388C8.52827 0.90292 9.95367 0.3125 11.4399 0.3125C12.9262 0.3125 14.3516 0.90292 15.4026 1.95388C16.4535 3.00483 17.044 4.43023 17.044 5.91651C17.044 7.40278 16.4535 8.82818 15.4026 9.87914C14.3516 10.9301 12.9262 11.5205 11.4399 11.5205C9.95367 11.5205 8.52827 10.9301 7.47731 9.87914C6.42636 8.82818 5.83594 7.40278 5.83594 5.91651Z" fill="#566FFE"/>
<path d="M24.8367 10.3602L24.9544 10.4498C26.1433 11.3311 27.6324 11.7063 29.0969 11.4936C30.5615 11.2809 31.8824 10.4976 32.7714 9.31455C33.6605 8.13152 34.0456 6.64485 33.8425 5.17898C33.6395 3.7131 32.8649 2.38704 31.6878 1.49017C30.5107 0.59331 29.0266 0.198464 27.5594 0.391803C26.0922 0.585143 24.7611 1.35097 23.8564 2.52216C22.9518 3.69335 22.5472 5.17481 22.7308 6.64324C22.9145 8.11166 23.6715 9.44784 24.8367 10.3602Z" fill="#566FFE"/>
<path d="M14.9923 14.323C15.3443 13.6565 15.827 13.068 16.4117 12.5924C16.9963 12.1169 17.6709 11.7642 18.395 11.5553C19.1192 11.3465 19.878 11.2859 20.6261 11.3771C21.3742 11.4684 22.0962 11.7095 22.7489 12.0863C23.4017 12.463 23.9717 12.9675 24.425 13.5696C24.8782 14.1717 25.2054 14.859 25.3869 15.5905C25.5683 16.3219 25.6004 17.0825 25.4812 17.8266C25.3619 18.5708 25.0938 19.2832 24.6929 19.9214C23.9215 21.149 22.7044 22.0299 21.2972 22.379C19.89 22.7282 18.4023 22.5183 17.1466 21.7936C15.8909 21.0689 14.9649 19.8857 14.5632 18.4927C14.1614 17.0996 14.3153 15.605 14.9923 14.323Z" fill="#566FFE"/>
<path d="M4.43738 14.3203H11.9187C11.6105 15.1973 11.4424 16.1416 11.4424 17.1223C11.4424 19.2743 12.2522 21.2413 13.5831 22.7263H12.8434C11.3988 22.7261 9.98941 23.1724 8.80818 24.004C7.62695 24.8356 6.7316 26.012 6.24467 27.372C5.30413 26.9942 4.4235 26.4817 3.6304 25.8506C1.5233 24.1553 0.234375 21.6504 0.234375 18.5233C0.234375 17.4086 0.67719 16.3396 1.46541 15.5513C2.25362 14.7631 3.32267 14.3203 4.43738 14.3203Z" fill="#566FFE"/>
<path d="M26.8491 22.7263C29.8893 22.7263 32.4783 24.6625 33.445 27.372C34.3977 26.9826 35.2803 26.4754 36.0621 25.8506C38.1692 24.1553 39.4581 21.6504 39.4581 18.5233C39.4581 17.4086 39.0153 16.3396 38.2271 15.5513C37.4389 14.7631 36.3698 14.3203 35.2551 14.3203H27.7738C28.082 15.1973 28.2501 16.1416 28.2501 17.1223C28.2527 19.1905 27.4902 21.1866 26.1094 22.7263H26.8491Z" fill="#566FFE"/>
<path d="M30.74 28.1315C30.9446 28.6247 31.0567 29.1683 31.0567 29.7343C31.0567 32.8613 29.7705 35.3663 27.6606 37.0615C25.5844 38.7287 22.7992 39.5413 19.8487 39.5413C16.8981 39.5413 14.113 38.7287 12.0367 37.0615C9.92956 35.3663 8.64064 32.8613 8.64064 29.7343C8.63916 29.1819 8.74687 28.6347 8.95756 28.1241C9.16826 27.6135 9.47779 27.1496 9.86837 26.759C10.259 26.3684 10.7229 26.0589 11.2335 25.8482C11.7441 25.6375 12.2913 25.5298 12.8436 25.5313H26.8537C27.6861 25.5311 28.4999 25.7781 29.1918 26.241C29.8837 26.704 30.4226 27.3619 30.74 28.1315Z" fill="#566FFE"/>
</svg>
