<svg width="20" height="17" viewBox="0 0 20 17" fill="none" xmlns="http://www.w3.org/2000/svg">
<path d="M10.3516 5.10938V8.69227L13.6163 11.8847" stroke="#183B56" stroke-width="1.5"/>
<path d="M11.0169 0.460938C6.51945 0.460938 2.86081 3.95159 2.75153 8.29677V8.49766H0.351562L3.98794 12.3137L7.52315 8.49766H4.81964V8.29677C4.9279 5.05993 7.66075 2.47085 11.0169 2.47085C14.4428 2.47085 17.2202 5.16969 17.2202 8.49766C17.2202 11.8256 14.4428 14.5245 11.0169 14.5245C9.69595 14.5252 8.40964 14.1154 7.3471 13.3554L5.92452 14.8292C7.37645 15.9345 9.17015 16.5344 11.0169 16.5324C15.5851 16.5324 19.2873 12.9359 19.2873 8.49766C19.2873 4.05938 15.5851 0.460938 11.0169 0.460938Z" fill="#183B56"/>
</svg>
