<svg width="799" height="848" viewBox="0 0 799 848" fill="none" xmlns="http://www.w3.org/2000/svg">
<g opacity="0.2">
<path d="M200.213 404.215V288.009L100.299 286.094V401.341C99.9795 402.299 100.299 403.576 101.895 404.215L147.224 431.031C149.458 432.308 153.608 432.308 156.481 430.712L198.298 407.088C199.575 406.449 200.533 405.172 200.213 404.215Z" fill="url(#paint0_linear_1728_83096)"/>
<path d="M147.221 314.508L101.893 287.691C99.6582 286.414 99.9774 283.86 102.531 282.264L144.349 258.959C147.221 257.363 151.371 257.363 153.606 258.64L198.935 285.457C201.169 286.734 200.85 289.287 198.296 290.884L156.479 314.508C153.606 315.785 149.456 315.785 147.221 314.508Z" fill="url(#paint1_linear_1728_83096)"/>
<path d="M128.708 346.118L115.94 338.775C114.982 338.137 114.344 336.86 114.344 335.902V315.47C114.344 314.193 114.982 313.874 115.94 314.193L128.708 321.536C129.666 322.174 130.305 323.451 130.305 324.409V344.841C130.305 346.118 129.666 346.437 128.708 346.118Z" fill="#F5E9E6"/>
<path d="M214.582 392.731L174.361 369.426C171.488 367.83 168.934 367.511 167.019 368.788L4.21875 462.646L59.7624 673.987L221.605 580.767C224.478 579.49 226.074 575.978 226.074 570.87L226.393 415.398C226.393 406.459 220.967 396.243 214.582 392.731Z" fill="url(#paint2_linear_1728_83096)"/>
<path d="M52.0948 673.034L11.8735 649.729C5.48917 645.898 0.0625 635.682 0.0625 627.062L0.381712 471.59C0.381712 462.97 5.80838 458.82 12.1927 462.651L52.414 485.956C58.7983 489.787 64.225 500.002 64.225 508.622L63.9058 664.095C63.9058 673.034 58.4791 676.865 52.0948 673.034Z" fill="#AB95F9"/>
<path d="M43.799 654.835L17.9424 639.831C13.7926 637.277 10.2812 630.892 10.2812 625.465V486.274C10.2812 480.846 13.7926 478.292 17.9424 480.527L43.799 495.532C47.9488 498.086 51.4602 504.471 51.4602 509.898V649.089C51.4602 654.516 47.9488 657.07 43.799 654.835Z" fill="url(#paint3_linear_1728_83096)"/>
<path d="M30.7044 633.441C26.5546 630.887 23.0432 624.502 23.0432 619.075V483.715L18.2549 480.842C14.1051 478.288 10.5938 480.842 10.5938 486.588V625.779C10.5938 631.206 14.1051 637.91 18.2549 640.145L44.1115 655.15C48.2613 657.704 51.7726 655.15 51.7726 649.403V645.572L30.7044 633.441Z" fill="url(#paint4_linear_1728_83096)"/>
<path d="M192.546 509.896V502.234C191.269 502.872 189.992 503.83 188.396 504.468L186.481 505.745V513.407L180.096 517.238V509.576L174.031 513.088V456.582L180.096 453.07V445.408L186.481 441.577V449.239L190.95 446.685C191.588 446.366 191.907 446.046 192.546 445.727V438.065L198.93 434.234V442.535C200.526 442.216 201.803 442.216 202.761 442.535C204.038 442.854 205.314 443.812 205.953 445.408C206.911 447.004 207.23 448.92 207.23 451.154C207.23 453.708 206.591 456.582 205.634 459.455C204.676 462.328 203.08 464.882 201.165 466.797C203.718 466.159 205.634 466.797 207.23 468.394C208.507 469.99 209.464 472.544 209.464 475.736C209.464 478.29 209.145 481.163 208.187 484.037C207.23 486.91 205.953 489.783 204.357 492.018C202.761 494.253 201.165 496.168 198.93 497.764V505.745L192.546 509.896ZM182.331 483.398V498.403L190.311 493.933C193.503 492.018 195.419 491.06 196.057 490.102C197.334 489.145 198.292 487.868 199.249 485.952C200.207 484.356 200.526 482.44 200.526 480.525C200.526 478.929 200.207 477.652 199.569 476.694C198.93 475.736 197.972 475.417 197.015 475.736C195.738 475.736 193.184 477.013 189.354 479.248L182.331 483.398ZM182.65 461.051V474.14L188.396 470.948C191.588 469.032 193.823 467.755 194.461 467.117C196.057 466.159 197.015 464.563 197.972 462.966C198.93 461.37 199.249 459.774 199.249 457.859C199.249 456.262 198.93 454.985 198.292 454.347C197.653 453.708 196.376 453.708 195.099 454.347C194.142 454.666 191.907 455.943 187.758 458.497L182.65 461.051Z" fill="url(#paint5_linear_1728_83096)"/>
<path d="M234.367 705.583L234.048 648.438L113.703 646.203L114.022 702.39C113.703 703.667 114.022 704.944 115.618 705.902L170.204 738.146C173.077 739.742 177.866 739.742 181.377 737.827L231.494 709.414C233.409 708.456 234.367 706.86 234.367 705.583Z" fill="url(#paint6_linear_1728_83096)"/>
<path d="M169.885 680.365L115.299 648.121C112.426 646.525 112.745 643.651 116.256 641.736L166.373 613.323C169.565 611.408 174.673 611.408 177.546 613.004L232.132 645.248C235.005 646.844 234.685 649.717 231.174 651.632L181.057 680.045C177.865 681.961 172.758 681.961 169.885 680.365Z" fill="url(#paint7_linear_1728_83096)"/>
<path d="M234.36 633.761V609.18L193.82 608.222L177.859 598.644C174.986 597.048 170.198 597.048 166.686 598.964L152.322 607.264L114.016 606.306V630.888C114.016 631.846 114.654 632.804 115.931 633.761L170.517 666.005C173.39 667.601 178.178 667.601 181.689 665.686L231.806 637.273C233.403 636.315 234.36 635.038 234.36 633.761Z" fill="url(#paint8_linear_1728_83096)"/>
<path d="M170.197 641.418L115.611 608.855C112.738 607.259 113.057 604.386 116.569 602.47L166.686 574.057C169.878 572.142 174.985 572.142 177.858 573.738L232.444 605.982C235.317 607.578 234.998 610.451 231.487 612.367L181.37 640.78C178.178 642.695 173.07 643.014 170.197 641.418Z" fill="url(#paint9_linear_1728_83096)"/>
<path d="M172.114 627.693L138.596 607.9C137 606.942 137 605.027 139.234 604.069L169.879 586.83C171.795 585.553 174.987 585.553 176.583 586.511L210.101 606.304C211.697 607.262 211.697 609.177 209.462 610.135L178.817 627.374C176.902 628.651 173.71 628.651 172.114 627.693Z" fill="url(#paint10_linear_1728_83096)"/>
<path d="M138.601 607.9L144.028 611.093L169.885 596.727C171.8 595.45 174.992 595.45 176.588 596.407L204.36 613.008L209.467 610.135C211.383 608.858 211.702 607.262 210.106 606.304L176.588 586.511C174.992 585.553 171.8 585.553 169.885 586.83L139.24 604.069C137.005 605.027 136.686 606.942 138.601 607.9Z" fill="url(#paint11_linear_1728_83096)"/>
<path opacity="0.5" d="M169.885 605.349L115.299 573.105C112.426 571.509 112.745 568.636 116.256 566.72L166.373 538.307C169.565 536.392 174.673 536.392 177.546 537.988L232.132 570.232C235.005 571.828 234.685 574.701 231.174 576.617L181.057 605.03C177.865 606.945 172.758 606.945 169.885 605.349Z" fill="#EAB6FF"/>
<path opacity="0.4" d="M231.174 576.613L181.057 605.025C177.865 606.941 172.757 606.941 169.884 605.345L115.298 573.101C114.021 572.462 113.383 571.505 113.383 570.547V605.025C113.383 605.983 114.021 606.941 115.298 607.899L169.884 640.142C172.757 641.739 177.545 641.739 181.057 639.823L231.174 611.41C233.089 610.453 234.047 608.856 234.047 607.579V573.101C234.047 574.378 233.089 575.655 231.174 576.613Z" fill="url(#paint12_linear_1728_83096)"/>
<path opacity="0.4" d="M231.174 576.613L181.057 605.025C177.865 606.941 172.757 606.941 169.884 605.345L115.298 573.101C114.021 572.462 113.383 571.505 113.383 570.547V605.025C113.383 605.983 114.021 606.941 115.298 607.899L169.884 640.142C172.757 641.739 177.545 641.739 181.057 639.823L231.174 611.41C233.089 610.453 234.047 608.856 234.047 607.579V573.101C234.047 574.378 233.089 575.655 231.174 576.613Z" fill="url(#paint13_linear_1728_83096)"/>
<path d="M132.855 683.879L125.833 679.729C125.513 679.41 124.875 678.771 124.875 678.133V666.959C124.875 666.321 125.194 666.001 125.833 666.321L132.855 670.471C133.175 670.79 133.813 671.428 133.813 672.067V683.241C133.494 683.879 133.175 684.198 132.855 683.879Z" fill="#F5E9E6"/>
<path d="M145.309 691.223L138.286 687.073C137.967 686.753 137.328 686.115 137.328 685.476V674.303C137.328 673.664 137.647 673.345 138.286 673.664L145.309 677.815C145.628 678.134 146.266 678.772 146.266 679.411V690.584C145.947 691.223 145.628 691.542 145.309 691.223Z" fill="#F5E9E6"/>
<path d="M157.754 698.246L150.731 694.096C150.412 693.777 149.773 693.138 149.773 692.5V681.326C149.773 680.688 150.093 680.369 150.731 680.688L157.754 684.838C158.073 685.157 158.711 685.796 158.711 686.434V697.608C158.392 698.246 158.073 698.566 157.754 698.246Z" fill="#F5E9E6"/>
<path d="M132.855 701.762L125.833 697.612C125.513 697.292 124.875 696.654 124.875 696.015V684.842C124.875 684.203 125.194 683.884 125.833 684.203L132.855 688.354C133.175 688.673 133.813 689.311 133.813 689.95V701.123C133.494 701.762 133.175 702.081 132.855 701.762Z" fill="#F5E9E6"/>
<path d="M145.309 709.106L138.286 704.955C137.967 704.636 137.328 703.998 137.328 703.359V692.186C137.328 691.547 137.647 691.228 138.286 691.547L145.309 695.697C145.628 696.017 146.266 696.655 146.266 697.294V708.467C145.947 708.786 145.628 709.106 145.309 709.106Z" fill="#F5E9E6"/>
<path d="M157.754 716.115L150.731 712.284C150.412 711.964 149.773 711.326 149.773 710.687V699.514C149.773 698.875 150.093 698.556 150.731 698.875L157.754 703.025C158.073 703.345 158.711 703.983 158.711 704.622V715.795C158.392 716.114 158.073 716.434 157.754 716.115Z" fill="#F5E9E6"/>
<path d="M765.229 656.106V549.478L673.295 547.562V653.552C672.976 654.51 673.295 655.467 674.572 656.425L716.389 681.007C718.624 682.284 722.454 682.284 725.008 680.688L763.314 658.979C764.591 658.341 765.548 657.064 765.229 656.106Z" fill="url(#paint14_linear_1728_83096)"/>
<path d="M716.39 573.743L674.572 549.161C672.338 547.884 672.657 545.649 675.211 544.372L713.517 522.663C716.07 521.386 719.901 521.067 722.136 522.344L763.953 546.926C766.187 548.203 765.868 550.438 763.314 551.715L725.009 573.423C722.455 575.02 718.624 575.02 716.39 573.743Z" fill="url(#paint15_linear_1728_83096)"/>
<path d="M699.472 602.793L687.98 596.089C687.342 595.769 686.703 594.492 686.703 593.535V574.699C686.703 573.741 687.342 573.103 687.98 573.741L699.472 580.446C700.11 580.765 700.749 582.042 700.749 582.999V601.835C701.068 602.793 700.429 603.112 699.472 602.793Z" fill="#F5E9E6"/>
<path d="M761.079 470.941V276.521L593.491 273.328V466.472C592.853 468.387 593.81 470.303 596.045 471.58L672.018 516.593C675.849 518.828 682.872 518.828 687.341 516.274L757.249 477.007C760.122 474.772 761.399 472.857 761.079 470.941Z" fill="url(#paint16_linear_1728_83096)"/>
<path d="M672.017 320.896L596.043 275.882C592.213 273.648 592.532 269.497 597.32 266.943L667.228 227.676C671.697 225.122 678.72 224.803 682.551 227.357L758.524 272.371C762.355 274.605 762.036 278.756 757.247 281.31L687.339 320.577C682.87 322.811 675.847 323.131 672.017 320.896Z" fill="url(#paint17_linear_1728_83096)"/>
<path d="M742.557 516.586L718.297 502.858V488.492L742.557 502.22V516.586Z" fill="#3B3BC4"/>
<path d="M766.184 503.179L742.562 490.089L766.184 488.812V503.179Z" fill="#3B3BC4"/>
<path d="M747.664 453.367V481.78L773.521 472.521L789.481 446.663L774.797 434.531L747.664 453.367Z" fill="url(#paint18_linear_1728_83096)"/>
<path d="M747.664 411.233V435.814L778.628 422.087L783.416 397.824L768.413 394.312L747.664 411.233Z" fill="url(#paint19_linear_1728_83096)"/>
<path d="M707.125 389.205L718.298 382.82L742.558 396.548L731.705 402.933L707.125 389.205Z" fill="#DFD2FF"/>
<path d="M766.182 383.142L741.602 369.414L730.43 375.799L754.69 389.526L766.182 383.142Z" fill="#DFD2FF"/>
<path d="M785.651 377.393L762.029 363.984L754.688 371.646L779.906 382.181L785.651 377.393Z" fill="#DFD2FF"/>
<path d="M718.297 368.453L742.557 382.181V396.547L718.297 382.819V368.453Z" fill="#554FC6"/>
<path d="M741.602 354.727L766.181 368.773V383.139L741.602 369.412V354.727Z" fill="#554FC6"/>
<path d="M753.732 347.703L778.311 361.75L766.181 368.773L741.602 354.727L753.732 347.703Z" fill="#DFD2FF"/>
<path d="M730.427 361.438L754.688 375.165L742.557 382.188L718.297 368.461L730.427 361.438Z" fill="#DFD2FF"/>
<path d="M766.185 503.177V488.811C763.951 490.088 761.397 491.684 758.524 493.28L754.694 495.515V509.881L742.563 516.904V502.538L731.391 508.923V403.253L742.563 396.868V382.502L754.694 375.479V389.845L763.312 385.056C764.27 384.417 765.228 383.779 766.185 383.46V369.094L778.316 362.07V377.713C780.869 377.075 783.423 376.756 785.657 377.713C788.211 378.352 790.126 380.267 791.723 383.14C793.319 386.014 794.276 389.525 794.276 393.995C794.276 399.103 793.319 404.211 791.403 409.319C789.488 414.746 786.615 419.215 783.104 423.365C787.892 422.408 791.723 423.365 794.276 426.558C796.83 429.431 798.107 434.22 798.107 440.285C798.107 445.074 797.149 450.182 795.553 455.609C793.957 461.036 791.723 466.144 788.53 470.614C785.657 474.764 782.146 478.595 778.316 481.468V496.473L766.185 503.177ZM747.671 453.375V481.787L762.355 473.168C768.101 469.975 771.931 467.421 773.208 466.144C775.443 464.229 777.677 461.675 778.954 458.482C780.55 455.29 781.188 452.098 781.188 448.267C781.188 445.074 780.55 442.839 779.592 441.243C778.315 439.647 776.719 439.008 774.485 439.328C772.25 439.647 767.462 441.882 760.439 446.032L747.671 453.375ZM747.671 411.234V435.816L758.205 429.75C764.589 426.239 768.42 423.685 769.697 422.727C772.57 420.811 774.485 418.257 776.081 415.065C777.677 412.192 778.316 408.999 778.316 405.488C778.316 402.295 777.677 400.061 776.4 398.784C775.123 397.507 772.889 397.507 770.335 398.464C768.739 399.103 764.27 401.657 756.609 406.126L747.671 411.234Z" fill="#B590FF"/>
<path d="M707.125 389.203L731.705 402.931L731.386 508.601L707.125 494.873V389.203Z" fill="#554FC6"/>
<path d="M615.84 335.897L604.668 329.513C604.029 329.193 603.391 327.916 603.391 326.959V308.762C603.391 307.804 604.029 307.165 604.668 307.804L615.84 314.189C616.478 314.508 617.117 315.785 617.117 316.743V334.94C617.117 335.897 616.478 336.217 615.84 335.897Z" fill="#F5E9E6"/>
<path d="M635.629 347.382L624.457 340.997C623.818 340.678 623.18 339.401 623.18 338.443V320.246C623.18 319.288 623.818 318.65 624.457 319.288L635.629 325.673C636.267 325.992 636.906 327.269 636.906 328.227V346.424C637.225 347.382 636.587 348.02 635.629 347.382Z" fill="#F5E9E6"/>
<path d="M655.746 359.202L644.574 352.817C643.935 352.498 643.297 351.221 643.297 350.263V332.066C643.297 331.109 643.935 330.47 644.574 331.109L655.746 337.493C656.385 337.813 657.023 339.09 657.023 340.047V358.244C657.342 359.202 656.704 359.521 655.746 359.202Z" fill="#F5E9E6"/>
<path d="M615.84 364.632L604.668 358.247C604.029 357.928 603.391 356.651 603.391 355.693V337.496C603.391 336.538 604.029 335.9 604.668 336.538L615.84 342.923C616.478 343.242 617.117 344.519 617.117 345.477V363.674C617.117 364.632 616.478 364.951 615.84 364.632Z" fill="#F5E9E6"/>
<path d="M635.629 376.116L624.457 369.731C623.818 369.412 623.18 368.135 623.18 367.177V348.98C623.18 348.023 623.818 347.384 624.457 348.023L635.629 354.408C636.267 354.727 636.906 356.004 636.906 356.962V375.159C637.225 376.116 636.587 376.755 635.629 376.116Z" fill="#F5E9E6"/>
<path d="M655.746 387.929L644.574 381.544C643.935 381.225 643.297 379.948 643.297 378.99V360.793C643.297 359.835 643.935 359.197 644.574 359.835L655.746 366.22C656.385 366.539 657.023 367.816 657.023 368.774V386.971C657.342 387.929 656.704 388.248 655.746 387.929Z" fill="#F5E9E6"/>
<path d="M635.629 404.851L624.457 398.466C623.818 398.146 623.18 396.869 623.18 395.912V377.715C623.18 376.757 623.818 376.119 624.457 376.757L635.629 383.142C636.267 383.461 636.906 384.738 636.906 385.696V403.893C637.225 404.851 636.587 405.17 635.629 404.851Z" fill="#F5E9E6"/>
<path d="M615.84 421.772L604.668 415.388C604.029 415.068 603.391 413.791 603.391 412.834V394.637C603.391 393.679 604.029 393.04 604.668 393.679L615.84 400.064C616.478 400.383 617.117 401.66 617.117 402.618V420.815C617.117 421.772 616.478 422.411 615.84 421.772Z" fill="#F5E9E6"/>
<path d="M655.746 473.804L644.574 467.419C643.935 467.1 643.297 465.823 643.297 464.865V446.668C643.297 445.71 643.935 445.072 644.574 445.71L655.746 452.095C656.385 452.414 657.023 453.691 657.023 454.649V472.846C657.342 473.804 656.704 474.442 655.746 473.804Z" fill="#F5E9E6"/>
<path opacity="0.5" d="M672.017 275.24L596.043 230.226C592.213 227.991 592.532 223.841 597.32 221.287L667.228 182.02C671.697 179.466 678.72 179.147 682.551 181.701L758.524 226.714C762.355 228.949 762.036 233.099 757.247 235.653L687.339 274.92C682.87 277.155 675.847 277.474 672.017 275.24Z" fill="#EAB6FF"/>
<path opacity="0.4" d="M757.25 235.33L687.342 274.597C682.873 277.151 675.85 277.47 672.019 275.235L596.046 230.222C594.45 229.264 593.492 227.987 593.492 226.391V274.597C593.492 275.874 594.45 277.47 596.046 278.428L672.019 323.441C675.85 325.676 682.873 325.676 687.342 322.803L757.25 283.536C759.804 281.939 761.081 280.024 761.081 278.428V230.541C761.081 232.137 759.804 233.733 757.25 235.33Z" fill="url(#paint20_linear_1728_83096)"/>
<path opacity="0.4" d="M757.25 235.33L687.342 274.597C682.873 277.151 675.85 277.47 672.019 275.235L596.046 230.222C594.45 229.264 593.492 227.987 593.492 226.391V274.597C593.492 275.874 594.45 277.47 596.046 278.428L672.019 323.441C675.85 325.676 682.873 325.676 687.342 322.803L757.25 283.536C759.804 281.939 761.081 280.024 761.081 278.428V230.541C761.081 232.137 759.804 233.733 757.25 235.33Z" fill="url(#paint21_linear_1728_83096)"/>
<path d="M498.358 499.037V138.609L261.819 133.82V492.333C260.861 494.887 262.138 497.441 265.33 499.356L372.587 562.886C378.014 566.079 387.909 565.759 394.294 562.248L492.931 506.699C497.081 504.784 498.677 501.91 498.358 499.037Z" fill="url(#paint22_linear_1728_83096)"/>
<path d="M372.584 201.18L265.327 137.65C259.9 134.458 260.539 128.711 266.923 125.2L365.561 69.6508C371.945 66.1391 381.841 65.8199 387.268 69.0123L494.524 132.542C499.951 135.735 499.313 141.481 492.928 144.993L394.29 200.541C387.906 204.372 378.33 204.692 372.584 201.18Z" fill="url(#paint23_linear_1728_83096)"/>
<path d="M481.439 203.094L406.742 246.512V234.7L481.439 191.602V203.094Z" fill="url(#paint24_linear_1728_83096)"/>
<path d="M481.437 225.438L458.453 238.846V227.034L481.437 213.945V225.438Z" fill="url(#paint25_linear_1728_83096)"/>
<path d="M449.836 243.953L406.742 268.854V257.042L449.836 232.141V243.953Z" fill="url(#paint26_linear_1728_83096)"/>
<path d="M481.434 247.148L428.125 277.796V266.303L481.434 235.336V247.148Z" fill="url(#paint27_linear_1728_83096)"/>
<path d="M419.511 282.907L406.742 290.25V278.757L419.511 271.414V282.907Z" fill="url(#paint28_linear_1728_83096)"/>
<path d="M481.439 269.493L406.742 312.591V301.098L481.439 258V269.493Z" fill="url(#paint29_linear_1728_83096)"/>
<path d="M481.437 291.844L458.453 305.253V293.76L481.437 280.352V291.844Z" fill="url(#paint30_linear_1728_83096)"/>
<path d="M449.836 310.359L406.742 335.26V323.448L449.836 298.547V310.359Z" fill="url(#paint31_linear_1728_83096)"/>
<path d="M481.434 313.554L428.125 344.202V332.709L481.434 301.742V313.554Z" fill="url(#paint32_linear_1728_83096)"/>
<path d="M419.511 349.305L406.742 356.648V345.155L419.511 337.812V349.305Z" fill="url(#paint33_linear_1728_83096)"/>
<path d="M481.439 334.618L406.742 378.035V366.223L481.439 323.125V334.618Z" fill="url(#paint34_linear_1728_83096)"/>
<path d="M481.437 356.969L458.453 370.378V358.885L481.437 345.477V356.969Z" fill="url(#paint35_linear_1728_83096)"/>
<path d="M449.836 375.484L406.742 400.385V388.573L449.836 363.672V375.484Z" fill="url(#paint36_linear_1728_83096)"/>
<path d="M481.434 378.679L428.125 409.327V397.834L481.434 366.867V378.679Z" fill="url(#paint37_linear_1728_83096)"/>
<path d="M419.511 414.43L406.742 421.773V410.28L419.511 402.938V414.43Z" fill="url(#paint38_linear_1728_83096)"/>
<path d="M481.439 401.024L406.742 444.442V432.629L481.439 389.531V401.024Z" fill="url(#paint39_linear_1728_83096)"/>
<path opacity="0.5" d="M373.866 121.687L276.824 64.2224C271.717 61.3492 272.355 56.2413 278.42 52.7296L367.482 2.60802C373.227 -0.584433 382.166 -0.903669 387.273 1.96954L484.315 59.4337C489.422 62.3069 488.784 67.4149 482.719 70.9266L393.657 121.048C387.911 124.56 378.973 124.56 373.866 121.687Z" fill="#EAB6FF"/>
<path opacity="0.4" d="M482.72 70.9303L393.658 121.052C387.912 124.244 378.974 124.564 373.867 121.69L276.825 64.2262C274.59 62.9492 273.633 61.353 273.633 59.4375V120.733C273.633 122.648 274.91 124.244 277.144 125.521L374.186 182.985C379.293 185.859 387.912 185.539 393.977 182.347L483.039 132.225C486.55 130.31 488.146 127.756 487.827 125.521V64.2262C487.508 66.7801 485.912 69.0149 482.72 70.9303Z" fill="url(#paint40_linear_1728_83096)"/>
<path opacity="0.4" d="M482.72 70.9303L393.658 121.052C387.912 124.244 378.974 124.564 373.867 121.69L276.825 64.2262C274.59 62.9492 273.633 61.353 273.633 59.4375V120.733C273.633 122.648 274.91 124.244 277.144 125.521L374.186 182.985C379.293 185.859 387.912 185.539 393.977 182.347L483.039 132.225C486.55 130.31 488.146 127.756 487.827 125.521V64.2262C487.508 66.7801 485.912 69.0149 482.72 70.9303Z" fill="url(#paint41_linear_1728_83096)"/>
<path d="M295.66 226.716L280.337 217.777C279.38 217.139 278.422 215.543 278.422 214.266V189.684C278.422 188.407 279.38 187.768 280.337 188.407L295.66 197.346C296.617 197.984 297.575 199.58 297.575 200.857V225.439C297.575 226.716 296.617 227.355 295.66 226.716Z" fill="#F5E9E6"/>
<path d="M322.792 242.357L307.47 233.418C306.512 232.779 305.555 231.183 305.555 229.906V205.324C305.555 204.047 306.512 203.409 307.47 204.047L322.792 212.986C323.75 213.625 324.708 215.221 324.708 216.498V241.08C324.708 242.357 323.75 242.995 322.792 242.357Z" fill="#F5E9E6"/>
<path d="M350.245 258.326L334.923 249.387C333.965 248.748 333.008 247.152 333.008 245.875V221.293C333.008 220.016 333.965 219.378 334.923 220.016L350.245 228.955C351.203 229.593 352.161 231.19 352.161 232.467V257.049C351.842 258.326 351.203 258.964 350.245 258.326Z" fill="#F5E9E6"/>
<path d="M295.66 265.662L280.337 256.723C279.38 256.084 278.422 254.488 278.422 253.211V228.629C278.422 227.352 279.38 226.714 280.337 227.352L295.66 236.291C296.617 236.929 297.575 238.526 297.575 239.803V264.385C297.575 265.661 296.617 266.3 295.66 265.662Z" fill="#F5E9E6"/>
<path d="M322.792 281.302L307.47 272.363C306.512 271.725 305.555 270.129 305.555 268.852V244.27C305.555 242.993 306.512 242.354 307.47 242.993L322.792 251.932C323.75 252.57 324.708 254.166 324.708 255.443V280.025C324.708 281.302 323.75 281.941 322.792 281.302Z" fill="#F5E9E6"/>
<path d="M350.245 297.263L334.923 288.324C333.965 287.686 333.008 286.089 333.008 284.812V260.231C333.008 258.954 333.965 258.315 334.923 258.954L350.245 267.892C351.203 268.531 352.161 270.127 352.161 271.404V295.986C351.842 297.263 351.203 297.902 350.245 297.263Z" fill="#F5E9E6"/>
<path d="M322.792 320.255L307.47 311.316C306.512 310.678 305.555 309.082 305.555 307.805V283.223C305.555 281.946 306.512 281.307 307.47 281.946L322.792 290.885C323.75 291.523 324.708 293.119 324.708 294.396V318.978C324.708 320.255 323.75 320.894 322.792 320.255Z" fill="#F5E9E6"/>
<path d="M350.245 374.841L334.923 365.902C333.965 365.264 333.008 363.668 333.008 362.391V337.809C333.008 336.532 333.965 335.893 334.923 336.532L350.245 345.471C351.203 346.109 352.161 347.705 352.161 348.982V373.564C351.842 374.841 351.203 375.48 350.245 374.841Z" fill="#F5E9E6"/>
<path d="M295.66 421.138L280.337 412.199C279.38 411.561 278.422 409.964 278.422 408.687V384.106C278.422 382.829 279.38 382.19 280.337 382.829L295.66 391.767C296.617 392.406 297.575 394.002 297.575 395.279V419.861C297.575 421.138 296.617 421.777 295.66 421.138Z" fill="#F5E9E6"/>
<path d="M376.097 174.357L310.338 135.728C306.827 133.812 307.465 130.301 311.296 128.066L371.628 93.9067C375.458 91.672 381.523 91.3527 385.035 93.5874L450.793 132.535C454.305 134.451 453.666 137.963 449.836 140.197L389.504 174.357C385.354 176.272 379.608 176.591 376.097 174.357Z" fill="url(#paint42_linear_1728_83096)"/>
<path d="M310.338 135.734L321.191 142.119L371.628 113.706C375.458 111.471 381.523 111.152 385.035 113.386L439.94 145.63L449.836 139.884C453.666 137.649 454.305 134.137 450.793 132.222L385.035 93.274C381.523 91.3585 375.777 91.3585 371.628 93.5932L311.296 128.072C307.465 130.307 306.827 133.818 310.338 135.734Z" fill="url(#paint43_linear_1728_83096)"/>
<path d="M403.555 779.328V492.646L248.416 489.453V774.859C247.777 776.455 248.735 778.37 250.65 779.647L320.878 821.149C324.389 823.384 330.774 823.065 335.243 820.83L400.044 784.436C402.597 782.84 403.555 780.924 403.555 779.328Z" fill="url(#paint44_linear_1728_83096)"/>
<path d="M320.876 533.826L250.648 492.324C247.137 490.089 247.456 486.577 251.606 484.023L316.407 447.629C320.557 445.075 326.941 445.075 330.772 447.31L400.999 488.812C404.511 491.047 404.192 494.558 400.042 497.112L335.241 533.506C331.091 535.741 324.707 535.741 320.876 533.826Z" fill="url(#paint45_linear_1728_83096)"/>
<path d="M402.924 847.011L371.641 829.133V810.617L402.924 828.495V847.011Z" fill="#3B3BC4"/>
<path d="M433.247 829.454L402.922 812.534L433.247 810.938V829.454Z" fill="#3B3BC4"/>
<path d="M409.305 765.278V801.992L442.822 790.179L463.571 756.659L444.418 741.016L409.305 765.278Z" fill="url(#paint46_linear_1728_83096)"/>
<path d="M409.305 711.325V742.93L449.207 725.052L455.591 693.766L436.438 689.297L409.305 711.325Z" fill="url(#paint47_linear_1728_83096)"/>
<path d="M357.273 682.597L371.638 674.297L403.241 692.175L388.876 700.475L357.273 682.597Z" fill="#DFD2FF"/>
<path d="M433.248 674.932L401.965 657.055L387.281 665.355L418.564 683.233L433.248 674.932Z" fill="#DFD2FF"/>
<path d="M458.465 667.27L428.139 650.031L418.562 660.247L451.123 673.655L458.465 667.27Z" fill="#DFD2FF"/>
<path d="M371.641 655.781L403.243 673.659V692.175L371.641 674.298V655.781Z" fill="#554FC6"/>
<path d="M401.961 638.219L433.244 656.097V674.932L401.961 657.054V638.219Z" fill="#554FC6"/>
<path d="M417.283 629.281L448.886 647.159L433.244 656.098L401.961 638.22L417.283 629.281Z" fill="#DFD2FF"/>
<path d="M387.282 646.844L418.565 664.722L403.243 673.66L371.641 655.783L387.282 646.844Z" fill="#DFD2FF"/>
<path d="M433.253 829.445V810.929C430.38 812.525 427.188 814.441 423.357 816.676L418.569 819.549V838.065L402.927 847.004V828.488L388.562 836.788V700.47L402.927 692.17V673.654L418.569 664.715V683.231L429.422 676.846C430.699 676.208 431.976 675.25 433.253 674.611V656.095L448.894 647.156V667.269C452.406 666.311 455.598 666.311 458.152 667.269C461.344 668.226 463.898 670.461 466.132 673.973C468.367 677.485 469.324 682.273 469.324 688.02C469.324 694.405 468.047 701.109 465.494 707.813C462.94 714.517 459.429 720.583 454.96 725.691C461.025 724.414 465.813 726.01 469.324 729.841C472.516 733.672 474.432 739.737 474.432 747.399C474.432 753.465 473.474 760.169 471.24 767.193C469.005 774.216 466.132 780.601 462.301 786.347C458.79 791.775 454.321 796.563 448.894 800.394V819.868L433.253 829.445ZM409.312 765.277V801.671L428.465 790.817C435.807 786.667 440.595 783.474 442.51 781.878C445.702 779.324 447.937 776.131 449.852 771.981C451.767 767.831 452.725 763.681 452.725 758.892C452.725 754.742 452.087 751.869 450.49 749.634C448.894 747.719 446.979 746.761 444.106 747.08C441.233 747.399 435.168 750.273 425.911 755.7L409.312 765.277ZM409.312 711.325V742.93L422.719 735.268C430.699 730.479 435.806 727.606 437.722 726.01C441.233 723.456 444.106 720.263 446.021 716.432C447.937 712.602 448.894 708.451 449.214 703.982C449.214 699.832 448.256 696.959 446.66 695.362C445.064 693.766 442.191 693.766 438.999 695.043C437.083 696.001 431.018 699.193 421.442 704.62L409.312 711.325Z" fill="#B590FF"/>
<path d="M357.273 682.594L388.876 700.471L388.557 836.789L357.273 818.911V682.594Z" fill="#554FC6"/>
<path d="M268.53 550.742L257.996 544.676C257.357 544.357 256.719 543.08 256.719 542.122V525.202C256.719 524.245 257.357 523.925 257.996 524.245L268.53 530.31C269.168 530.63 269.807 531.907 269.807 532.864V549.784C269.807 550.742 269.168 551.061 268.53 550.742Z" fill="#F5E9E6"/>
<path d="M287.045 561.601L276.511 555.536C275.873 555.217 275.234 553.94 275.234 552.982V536.062C275.234 535.104 275.873 534.785 276.511 535.104L287.045 541.17C287.684 541.489 288.322 542.766 288.322 543.724V560.644C288.322 561.601 287.684 561.921 287.045 561.601Z" fill="#F5E9E6"/>
<path d="M305.874 572.453L295.339 566.387C294.701 566.068 294.062 564.791 294.062 563.833V546.913C294.062 545.956 294.701 545.636 295.339 545.956L305.874 552.021C306.512 552.341 307.15 553.618 307.15 554.575V571.495C307.15 572.453 306.512 572.772 305.874 572.453Z" fill="#F5E9E6"/>
<path d="M268.53 577.242L257.996 571.176C257.357 570.857 256.719 569.58 256.719 568.622V551.703C256.719 550.745 257.357 550.425 257.996 550.745L268.53 556.81C269.168 557.13 269.807 558.407 269.807 559.364V576.284C269.807 577.242 269.168 577.881 268.53 577.242Z" fill="#F5E9E6"/>
<path d="M287.045 588.094L276.511 582.028C275.873 581.709 275.234 580.432 275.234 579.474V562.554C275.234 561.596 275.873 561.277 276.511 561.596L287.045 567.662C287.684 567.981 288.322 569.258 288.322 570.216V587.136C288.322 588.094 287.684 588.413 287.045 588.094Z" fill="#F5E9E6"/>
<path d="M305.874 598.945L295.339 592.879C294.701 592.56 294.062 591.283 294.062 590.325V573.406C294.062 572.448 294.701 572.129 295.339 572.448L305.874 578.513C306.512 578.833 307.15 580.11 307.15 581.067V597.987C307.15 598.945 306.512 599.264 305.874 598.945Z" fill="#F5E9E6"/>
<path d="M287.045 614.594L276.511 608.528C275.873 608.209 275.234 606.932 275.234 605.974V589.054C275.234 588.096 275.873 587.777 276.511 588.096L287.045 594.162C287.684 594.481 288.322 595.758 288.322 596.716V613.636C288.322 614.594 287.684 615.232 287.045 614.594Z" fill="#F5E9E6"/>
<path d="M305.874 651.945L295.339 645.88C294.701 645.56 294.062 644.283 294.062 643.326V626.406C294.062 625.448 294.701 625.129 295.339 625.448L305.874 631.514C306.512 631.833 307.15 633.11 307.15 634.068V650.988C307.15 651.945 306.512 652.584 305.874 651.945Z" fill="#F5E9E6"/>
<path d="M268.53 683.547L257.996 677.481C257.357 677.162 256.719 675.885 256.719 674.927V658.007C256.719 657.049 257.357 656.73 257.996 657.049L268.53 663.115C269.168 663.434 269.807 664.711 269.807 665.669V682.589C269.807 683.547 269.168 684.185 268.53 683.547Z" fill="#F5E9E6"/>
<path d="M639.775 636.947V447.315L450.16 443.484V631.52C449.522 633.755 450.479 635.67 453.033 637.266L539.222 688.026C543.691 690.58 551.352 690.261 556.779 687.388L635.944 642.694C638.498 641.417 640.094 638.863 639.775 636.947Z" fill="url(#paint48_linear_1728_83096)"/>
<path d="M538.904 497.439L452.715 446.679C448.246 444.125 448.885 439.656 453.992 436.463L533.158 391.769C538.265 388.896 546.245 388.576 550.714 391.13L636.903 441.89C641.372 444.444 640.733 448.914 635.626 452.106L556.46 496.8C551.353 499.993 543.373 499.993 538.904 497.439Z" fill="url(#paint49_linear_1728_83096)"/>
<path d="M541.779 476.052L489.108 444.766C486.235 443.169 486.874 440.296 490.066 438.7L538.587 411.245C541.779 409.329 546.567 409.329 549.44 410.926L602.111 442.212C604.984 443.808 604.345 446.681 601.153 448.277L552.632 475.732C549.121 477.329 544.333 477.648 541.779 476.052Z" fill="url(#paint50_linear_1728_83096)"/>
<path d="M523.892 617.802C523.892 614.29 521.976 610.14 519.103 608.544L454.941 570.873C453.664 570.234 452.706 570.234 451.749 570.553C451.749 570.553 451.43 570.553 451.43 570.873L435.469 580.45L505.377 631.848L521.338 622.271C521.657 622.271 521.976 621.952 522.296 621.633C523.572 620.675 523.892 619.398 523.892 617.802Z" fill="url(#paint51_linear_1728_83096)"/>
<path d="M502.826 631.21L438.663 593.538C436.11 591.942 433.875 587.792 433.875 584.28C433.875 580.769 436.11 579.172 438.982 580.769L503.145 618.44C505.699 620.036 507.933 624.186 507.933 627.698C507.614 631.21 505.38 632.806 502.826 631.21Z" fill="url(#paint52_linear_1728_83096)"/>
<path d="M523.9 589.7C523.9 586.189 521.984 582.038 519.111 580.442L454.949 542.771C453.672 542.133 452.714 542.133 451.757 542.452C451.757 542.452 451.437 542.452 451.437 542.771L435.477 552.348L505.385 603.747L521.346 594.17C521.665 594.17 521.984 593.85 522.303 593.531C523.58 592.573 523.9 591.296 523.9 589.7Z" fill="url(#paint53_linear_1728_83096)"/>
<path d="M502.513 602.788L438.351 565.117C435.797 563.52 433.562 559.37 433.562 555.858C433.562 552.347 435.797 550.751 438.67 552.347L502.832 590.018C505.386 591.614 507.621 595.764 507.621 599.276C507.621 602.787 505.386 604.384 502.513 602.788Z" fill="url(#paint54_linear_1728_83096)"/>
<path d="M524.212 561.605C524.212 558.094 522.297 553.944 519.424 552.347L455.261 514.357C453.984 513.719 453.027 513.719 452.069 514.038C452.069 514.038 451.75 514.038 451.75 514.357L435.789 523.934L505.697 575.333L521.658 565.756C521.977 565.756 522.297 565.436 522.616 565.117C523.574 564.159 524.212 563.202 524.212 561.605Z" fill="url(#paint55_linear_1728_83096)"/>
<path d="M502.826 574.694L438.663 537.023C436.11 535.427 433.875 531.276 433.875 527.765C433.875 524.253 436.11 522.657 438.982 524.253L503.145 561.924C505.699 563.52 507.933 567.67 507.933 571.182C507.614 574.694 505.38 576.29 502.826 574.694Z" fill="url(#paint56_linear_1728_83096)"/>
<path d="M524.212 533.192C524.212 529.681 522.297 525.531 519.424 523.934L455.261 486.263C453.984 485.625 453.027 485.625 452.069 485.944C452.069 485.944 451.75 485.944 451.75 486.263L435.789 495.841L505.697 547.239L521.658 537.662C521.977 537.662 522.297 537.343 522.616 537.023C523.574 536.066 524.212 535.108 524.212 533.192Z" fill="url(#paint57_linear_1728_83096)"/>
<path d="M502.826 546.6L438.663 508.929C436.11 507.333 433.875 503.183 433.875 499.671C433.875 496.159 436.11 494.563 438.982 496.159L503.145 533.83C505.699 535.427 507.933 539.577 507.933 543.088C507.614 546.6 505.38 548.196 502.826 546.6Z" fill="url(#paint58_linear_1728_83096)"/>
<path d="M488.785 444.766L497.723 449.874L538.263 427.207C541.456 425.292 546.244 425.292 549.117 426.888L593.169 452.747L601.149 448.277C604.341 446.362 604.66 443.808 602.107 442.212L549.436 410.926C546.563 409.329 541.775 409.329 538.583 411.245L490.062 438.7C486.55 440.615 486.231 443.169 488.785 444.766Z" fill="url(#paint59_linear_1728_83096)"/>
<path d="M626.364 499.039L566.352 533.518V524.26L626.364 489.781V499.039Z" fill="url(#paint60_linear_1728_83096)"/>
<path d="M626.366 516.914L607.852 527.45V518.191L626.366 507.656V516.914Z" fill="url(#paint61_linear_1728_83096)"/>
<path d="M600.827 531.602L566.352 551.714V542.137L600.827 522.344V531.602Z" fill="url(#paint62_linear_1728_83096)"/>
<path d="M626.369 534.149L583.594 558.731V549.473L626.369 524.891V534.149Z" fill="url(#paint63_linear_1728_83096)"/>
<path d="M576.566 562.883L566.352 568.949V559.371L576.566 553.625V562.883Z" fill="url(#paint64_linear_1728_83096)"/>
<path d="M626.364 552.351L566.352 586.829V577.571L626.364 542.773V552.351Z" fill="url(#paint65_linear_1728_83096)"/>
<path d="M626.366 570.227L607.852 580.762V571.504L626.366 560.969V570.227Z" fill="url(#paint66_linear_1728_83096)"/>
<path d="M600.827 584.914L566.352 604.708V595.449L600.827 575.656V584.914Z" fill="url(#paint67_linear_1728_83096)"/>
<path d="M626.369 587.469L583.594 612.051V602.793L626.369 578.211V587.469Z" fill="url(#paint68_linear_1728_83096)"/>
<path d="M576.566 616.196L566.352 621.942V612.684L576.566 606.938V616.196Z" fill="url(#paint69_linear_1728_83096)"/>
<path d="M626.364 604.383L566.352 639.181V629.923L626.364 595.125V604.383Z" fill="url(#paint70_linear_1728_83096)"/>
<path d="M677.444 691.225L597.959 644.295C596.363 643.338 595.086 643.338 593.809 643.976L506.344 694.417L594.128 780.294L680.955 730.173C682.551 729.534 683.509 727.619 683.509 725.065V703.675C683.509 698.886 680.955 693.459 677.444 691.225Z" fill="url(#paint71_linear_1728_83096)"/>
<path d="M589.979 779.973L510.494 733.043C506.982 731.128 504.109 725.701 504.109 720.912V699.523C504.109 694.734 506.982 692.819 510.494 694.734L589.979 741.663C593.49 743.579 596.363 749.006 596.363 753.794V775.184C596.363 779.653 593.49 781.888 589.979 779.973Z" fill="#9188ED"/>
<path d="M585.833 770.085L514.009 727.625C511.775 726.348 509.859 722.836 509.859 719.963V707.512C509.859 704.639 511.775 703.043 514.009 704.32L585.833 746.78C588.067 748.057 589.983 751.568 589.983 754.442V766.892C589.983 769.765 588.067 771.362 585.833 770.085Z" fill="url(#paint72_linear_1728_83096)"/>
<path d="M520.713 724.111C518.478 722.834 516.563 719.322 516.563 716.449V705.914L514.009 704.317C511.775 703.04 509.859 704.317 509.859 707.51V719.96C509.859 722.834 511.775 726.345 514.009 727.622L585.833 770.082C588.067 771.359 589.983 770.082 589.983 766.89V764.974L520.713 724.111Z" fill="url(#paint73_linear_1728_83096)"/>
</g>
<defs>
<linearGradient id="paint0_linear_1728_83096" x1="157.36" y1="359.093" x2="143.527" y2="359.093" gradientUnits="userSpaceOnUse">
<stop stop-color="#867CE2"/>
<stop offset="1" stop-color="#CCB0FF"/>
</linearGradient>
<linearGradient id="paint1_linear_1728_83096" x1="397.383" y1="466.051" x2="114.365" y2="260.483" gradientUnits="userSpaceOnUse">
<stop stop-color="#6318FF"/>
<stop offset="1" stop-color="#FFF6E2"/>
</linearGradient>
<linearGradient id="paint2_linear_1728_83096" x1="109.311" y1="481.73" x2="98.4653" y2="462.622" gradientUnits="userSpaceOnUse">
<stop stop-color="#886AFF"/>
<stop offset="1" stop-color="#D3C2FF"/>
</linearGradient>
<linearGradient id="paint3_linear_1728_83096" x1="23.3589" y1="643.666" x2="36.5625" y2="514.28" gradientUnits="userSpaceOnUse">
<stop stop-color="#3124FF"/>
<stop offset="1" stop-color="#00FFE2"/>
</linearGradient>
<linearGradient id="paint4_linear_1728_83096" x1="45.9805" y1="601.172" x2="55.5071" y2="615.624" gradientUnits="userSpaceOnUse">
<stop stop-color="#8942FF"/>
<stop offset="1" stop-color="#D3C2FF"/>
</linearGradient>
<linearGradient id="paint5_linear_1728_83096" x1="169.935" y1="616.721" x2="186.462" y2="503.105" gradientUnits="userSpaceOnUse">
<stop stop-color="#4F47FF"/>
<stop offset="1" stop-color="#00FFFF"/>
</linearGradient>
<linearGradient id="paint6_linear_1728_83096" x1="184.447" y1="692.715" x2="165.71" y2="692.715" gradientUnits="userSpaceOnUse">
<stop stop-color="#867CE2"/>
<stop offset="1" stop-color="#B590FF"/>
</linearGradient>
<linearGradient id="paint7_linear_1728_83096" x1="375.531" y1="782.439" x2="141.653" y2="625.098" gradientUnits="userSpaceOnUse">
<stop stop-color="#6318FF"/>
<stop offset="1" stop-color="#FFF6E2"/>
</linearGradient>
<linearGradient id="paint8_linear_1728_83096" x1="184.44" y1="632.385" x2="165.703" y2="632.385" gradientUnits="userSpaceOnUse">
<stop stop-color="#867CE2"/>
<stop offset="1" stop-color="#B590FF"/>
</linearGradient>
<linearGradient id="paint9_linear_1728_83096" x1="386.775" y1="762.178" x2="143.509" y2="585.484" gradientUnits="userSpaceOnUse">
<stop stop-color="#6318FF"/>
<stop offset="1" stop-color="#FFF6E2"/>
</linearGradient>
<linearGradient id="paint10_linear_1728_83096" x1="287.208" y1="682.064" x2="125.859" y2="574.854" gradientUnits="userSpaceOnUse">
<stop stop-color="#6318FF"/>
<stop offset="1" stop-color="#FFF6E2"/>
</linearGradient>
<linearGradient id="paint11_linear_1728_83096" x1="176.956" y1="599.411" x2="165.802" y2="599.411" gradientUnits="userSpaceOnUse">
<stop stop-color="#867CE2"/>
<stop offset="1" stop-color="#B590FF"/>
</linearGradient>
<linearGradient id="paint12_linear_1728_83096" x1="183.146" y1="605.706" x2="165.669" y2="605.706" gradientUnits="userSpaceOnUse">
<stop stop-color="#8161E2"/>
<stop offset="1" stop-color="#CACCFF"/>
</linearGradient>
<linearGradient id="paint13_linear_1728_83096" x1="183.146" y1="605.706" x2="165.669" y2="605.706" gradientUnits="userSpaceOnUse">
<stop stop-color="#8161E2"/>
<stop offset="1" stop-color="#9554FF"/>
</linearGradient>
<linearGradient id="paint14_linear_1728_83096" x1="725.801" y1="614.742" x2="713.085" y2="614.742" gradientUnits="userSpaceOnUse">
<stop stop-color="#867CE2"/>
<stop offset="1" stop-color="#CCB0FF"/>
</linearGradient>
<linearGradient id="paint15_linear_1728_83096" x1="946.444" y1="713.065" x2="686.279" y2="524.097" gradientUnits="userSpaceOnUse">
<stop stop-color="#6318FF"/>
<stop offset="1" stop-color="#FFF6E2"/>
</linearGradient>
<linearGradient id="paint16_linear_1728_83096" x1="689.149" y1="395.443" x2="665.985" y2="395.443" gradientUnits="userSpaceOnUse">
<stop stop-color="#867CE2"/>
<stop offset="1" stop-color="#B590FF"/>
</linearGradient>
<linearGradient id="paint17_linear_1728_83096" x1="1053.04" y1="546.907" x2="579.1" y2="202.668" gradientUnits="userSpaceOnUse">
<stop stop-color="#6318FF"/>
<stop offset="1" stop-color="#FFF6E2"/>
</linearGradient>
<linearGradient id="paint18_linear_1728_83096" x1="759.256" y1="464.136" x2="771.784" y2="452.905" gradientUnits="userSpaceOnUse">
<stop stop-color="#796DE8"/>
<stop offset="1" stop-color="#554FC6"/>
</linearGradient>
<linearGradient id="paint19_linear_1728_83096" x1="757.062" y1="422.004" x2="769.391" y2="410.952" gradientUnits="userSpaceOnUse">
<stop stop-color="#796DE8"/>
<stop offset="1" stop-color="#554FC6"/>
</linearGradient>
<linearGradient id="paint20_linear_1728_83096" x1="690.3" y1="275.739" x2="665.99" y2="275.739" gradientUnits="userSpaceOnUse">
<stop stop-color="#8161E2"/>
<stop offset="1" stop-color="#CACCFF"/>
</linearGradient>
<linearGradient id="paint21_linear_1728_83096" x1="690.3" y1="275.739" x2="665.99" y2="275.739" gradientUnits="userSpaceOnUse">
<stop stop-color="#8161E2"/>
<stop offset="1" stop-color="#9554FF"/>
</linearGradient>
<linearGradient id="paint22_linear_1728_83096" x1="395.125" y1="349.678" x2="364.065" y2="349.678" gradientUnits="userSpaceOnUse">
<stop stop-color="#867CE2"/>
<stop offset="1" stop-color="#B590FF"/>
</linearGradient>
<linearGradient id="paint23_linear_1728_83096" x1="715.216" y1="378.602" x2="322.221" y2="93.1537" gradientUnits="userSpaceOnUse">
<stop stop-color="#6318FF"/>
<stop offset="1" stop-color="#FFF6E2"/>
</linearGradient>
<linearGradient id="paint24_linear_1728_83096" x1="578.086" y1="271.426" x2="356.842" y2="179.743" gradientUnits="userSpaceOnUse">
<stop stop-color="#639AFF"/>
<stop offset="1" stop-color="#FFF6E2"/>
</linearGradient>
<linearGradient id="paint25_linear_1728_83096" x1="518.388" y1="245.295" x2="438.55" y2="212.21" gradientUnits="userSpaceOnUse">
<stop stop-color="#639AFF"/>
<stop offset="1" stop-color="#FFF6E2"/>
</linearGradient>
<linearGradient id="paint26_linear_1728_83096" x1="509.957" y1="282.461" x2="375.058" y2="226.559" gradientUnits="userSpaceOnUse">
<stop stop-color="#639AFF"/>
<stop offset="1" stop-color="#FFF6E2"/>
</linearGradient>
<linearGradient id="paint27_linear_1728_83096" x1="553.183" y1="295.124" x2="390.868" y2="227.862" gradientUnits="userSpaceOnUse">
<stop stop-color="#639AFF"/>
<stop offset="1" stop-color="#FFF6E2"/>
</linearGradient>
<linearGradient id="paint28_linear_1728_83096" x1="444.859" y1="293.213" x2="392.438" y2="271.49" gradientUnits="userSpaceOnUse">
<stop stop-color="#639AFF"/>
<stop offset="1" stop-color="#FFF6E2"/>
</linearGradient>
<linearGradient id="paint29_linear_1728_83096" x1="578.086" y1="337.749" x2="356.841" y2="246.066" gradientUnits="userSpaceOnUse">
<stop stop-color="#639AFF"/>
<stop offset="1" stop-color="#FFF6E2"/>
</linearGradient>
<linearGradient id="paint30_linear_1728_83096" x1="518.388" y1="311.711" x2="438.55" y2="278.626" gradientUnits="userSpaceOnUse">
<stop stop-color="#639AFF"/>
<stop offset="1" stop-color="#FFF6E2"/>
</linearGradient>
<linearGradient id="paint31_linear_1728_83096" x1="509.957" y1="348.877" x2="375.058" y2="292.975" gradientUnits="userSpaceOnUse">
<stop stop-color="#639AFF"/>
<stop offset="1" stop-color="#FFF6E2"/>
</linearGradient>
<linearGradient id="paint32_linear_1728_83096" x1="553.183" y1="361.541" x2="390.867" y2="294.278" gradientUnits="userSpaceOnUse">
<stop stop-color="#639AFF"/>
<stop offset="1" stop-color="#FFF6E2"/>
</linearGradient>
<linearGradient id="paint33_linear_1728_83096" x1="444.86" y1="359.622" x2="392.437" y2="337.898" gradientUnits="userSpaceOnUse">
<stop stop-color="#639AFF"/>
<stop offset="1" stop-color="#FFF6E2"/>
</linearGradient>
<linearGradient id="paint34_linear_1728_83096" x1="578.085" y1="402.979" x2="356.841" y2="311.296" gradientUnits="userSpaceOnUse">
<stop stop-color="#639AFF"/>
<stop offset="1" stop-color="#FFF6E2"/>
</linearGradient>
<linearGradient id="paint35_linear_1728_83096" x1="518.388" y1="376.856" x2="438.55" y2="343.772" gradientUnits="userSpaceOnUse">
<stop stop-color="#639AFF"/>
<stop offset="1" stop-color="#FFF6E2"/>
</linearGradient>
<linearGradient id="paint36_linear_1728_83096" x1="509.957" y1="414.022" x2="375.058" y2="358.121" gradientUnits="userSpaceOnUse">
<stop stop-color="#639AFF"/>
<stop offset="1" stop-color="#FFF6E2"/>
</linearGradient>
<linearGradient id="paint37_linear_1728_83096" x1="553.183" y1="426.686" x2="390.867" y2="359.424" gradientUnits="userSpaceOnUse">
<stop stop-color="#639AFF"/>
<stop offset="1" stop-color="#FFF6E2"/>
</linearGradient>
<linearGradient id="paint38_linear_1728_83096" x1="444.86" y1="424.767" x2="392.437" y2="403.043" gradientUnits="userSpaceOnUse">
<stop stop-color="#639AFF"/>
<stop offset="1" stop-color="#FFF6E2"/>
</linearGradient>
<linearGradient id="paint39_linear_1728_83096" x1="578.085" y1="469.31" x2="356.841" y2="377.628" gradientUnits="userSpaceOnUse">
<stop stop-color="#639AFF"/>
<stop offset="1" stop-color="#FFF6E2"/>
</linearGradient>
<linearGradient id="paint40_linear_1728_83096" x1="397.248" y1="122.48" x2="366.218" y2="122.48" gradientUnits="userSpaceOnUse">
<stop stop-color="#8161E2"/>
<stop offset="1" stop-color="#CACCFF"/>
</linearGradient>
<linearGradient id="paint41_linear_1728_83096" x1="397.248" y1="122.48" x2="366.218" y2="122.48" gradientUnits="userSpaceOnUse">
<stop stop-color="#8161E2"/>
<stop offset="1" stop-color="#9554FF"/>
</linearGradient>
<linearGradient id="paint42_linear_1728_83096" x1="525.526" y1="230.254" x2="306.066" y2="84.4325" gradientUnits="userSpaceOnUse">
<stop stop-color="#6318FF"/>
<stop offset="1" stop-color="#FFF6E2"/>
</linearGradient>
<linearGradient id="paint43_linear_1728_83096" x1="386.177" y1="118.943" x2="367.881" y2="118.943" gradientUnits="userSpaceOnUse">
<stop stop-color="#867CE2"/>
<stop offset="1" stop-color="#B590FF"/>
</linearGradient>
<linearGradient id="paint44_linear_1728_83096" x1="336.826" y1="656.14" x2="315.373" y2="656.14" gradientUnits="userSpaceOnUse">
<stop stop-color="#867CE2"/>
<stop offset="1" stop-color="#CCB0FF"/>
</linearGradient>
<linearGradient id="paint45_linear_1728_83096" x1="692.867" y1="757.004" x2="253.936" y2="438.191" gradientUnits="userSpaceOnUse">
<stop stop-color="#6318FF"/>
<stop offset="1" stop-color="#FFF6E2"/>
</linearGradient>
<linearGradient id="paint46_linear_1728_83096" x1="424.462" y1="779.26" x2="440.605" y2="764.788" gradientUnits="userSpaceOnUse">
<stop stop-color="#796DE8"/>
<stop offset="1" stop-color="#554FC6"/>
</linearGradient>
<linearGradient id="paint47_linear_1728_83096" x1="421.636" y1="724.964" x2="437.521" y2="710.724" gradientUnits="userSpaceOnUse">
<stop stop-color="#796DE8"/>
<stop offset="1" stop-color="#554FC6"/>
</linearGradient>
<linearGradient id="paint48_linear_1728_83096" x1="561.854" y1="566.732" x2="531.791" y2="566.732" gradientUnits="userSpaceOnUse">
<stop stop-color="#867CE2"/>
<stop offset="1" stop-color="#B590FF"/>
</linearGradient>
<linearGradient id="paint49_linear_1728_83096" x1="889.764" y1="694.974" x2="481.906" y2="398.73" gradientUnits="userSpaceOnUse">
<stop stop-color="#6318FF"/>
<stop offset="1" stop-color="#FFF6E2"/>
</linearGradient>
<linearGradient id="paint50_linear_1728_83096" x1="710.943" y1="573.635" x2="448.548" y2="367.486" gradientUnits="userSpaceOnUse">
<stop stop-color="#6318FF"/>
<stop offset="1" stop-color="#FFF6E2"/>
</linearGradient>
<linearGradient id="paint51_linear_1728_83096" x1="521.867" y1="626.8" x2="412.231" y2="548.255" gradientUnits="userSpaceOnUse">
<stop stop-color="#8440FF"/>
<stop offset="1" stop-color="#EAD6E2"/>
</linearGradient>
<linearGradient id="paint52_linear_1728_83096" x1="729.752" y1="946.821" x2="400.3" y2="900.217" gradientUnits="userSpaceOnUse">
<stop stop-color="#6318FF"/>
<stop offset="1" stop-color="#FFF6E2"/>
</linearGradient>
<linearGradient id="paint53_linear_1728_83096" x1="521.782" y1="598.559" x2="412.146" y2="520.015" gradientUnits="userSpaceOnUse">
<stop stop-color="#8440FF"/>
<stop offset="1" stop-color="#EAD6E2"/>
</linearGradient>
<linearGradient id="paint54_linear_1728_83096" x1="733.541" y1="923.682" x2="404.091" y2="877.079" gradientUnits="userSpaceOnUse">
<stop stop-color="#6318FF"/>
<stop offset="1" stop-color="#FFF6E2"/>
</linearGradient>
<linearGradient id="paint55_linear_1728_83096" x1="521.96" y1="570.405" x2="412.323" y2="491.86" gradientUnits="userSpaceOnUse">
<stop stop-color="#8440FF"/>
<stop offset="1" stop-color="#EAD6E2"/>
</linearGradient>
<linearGradient id="paint56_linear_1728_83096" x1="726.21" y1="885.637" x2="396.758" y2="839.033" gradientUnits="userSpaceOnUse">
<stop stop-color="#6318FF"/>
<stop offset="1" stop-color="#FFF6E2"/>
</linearGradient>
<linearGradient id="paint57_linear_1728_83096" x1="521.96" y1="542.251" x2="412.323" y2="463.706" gradientUnits="userSpaceOnUse">
<stop stop-color="#8440FF"/>
<stop offset="1" stop-color="#EAD6E2"/>
</linearGradient>
<linearGradient id="paint58_linear_1728_83096" x1="725.004" y1="855.895" x2="395.551" y2="809.291" gradientUnits="userSpaceOnUse">
<stop stop-color="#6318FF"/>
<stop offset="1" stop-color="#FFF6E2"/>
</linearGradient>
<linearGradient id="paint59_linear_1728_83096" x1="549.762" y1="431.443" x2="535.092" y2="431.443" gradientUnits="userSpaceOnUse">
<stop stop-color="#867CE2"/>
<stop offset="1" stop-color="#B590FF"/>
</linearGradient>
<linearGradient id="paint60_linear_1728_83096" x1="703.634" y1="553.708" x2="526.237" y2="480.195" gradientUnits="userSpaceOnUse">
<stop stop-color="#639AFF"/>
<stop offset="1" stop-color="#FFF6E2"/>
</linearGradient>
<linearGradient id="paint61_linear_1728_83096" x1="655.772" y1="532.756" x2="591.756" y2="506.228" gradientUnits="userSpaceOnUse">
<stop stop-color="#639AFF"/>
<stop offset="1" stop-color="#FFF6E2"/>
</linearGradient>
<linearGradient id="paint62_linear_1728_83096" x1="649.008" y1="562.56" x2="540.843" y2="517.737" gradientUnits="userSpaceOnUse">
<stop stop-color="#639AFF"/>
<stop offset="1" stop-color="#FFF6E2"/>
</linearGradient>
<linearGradient id="paint63_linear_1728_83096" x1="683.676" y1="572.705" x2="553.528" y2="518.772" gradientUnits="userSpaceOnUse">
<stop stop-color="#639AFF"/>
<stop offset="1" stop-color="#FFF6E2"/>
</linearGradient>
<linearGradient id="paint64_linear_1728_83096" x1="596.811" y1="571.171" x2="554.779" y2="553.754" gradientUnits="userSpaceOnUse">
<stop stop-color="#639AFF"/>
<stop offset="1" stop-color="#FFF6E2"/>
</linearGradient>
<linearGradient id="paint65_linear_1728_83096" x1="703.634" y1="606.888" x2="526.237" y2="533.376" gradientUnits="userSpaceOnUse">
<stop stop-color="#639AFF"/>
<stop offset="1" stop-color="#FFF6E2"/>
</linearGradient>
<linearGradient id="paint66_linear_1728_83096" x1="655.772" y1="586.005" x2="591.756" y2="559.477" gradientUnits="userSpaceOnUse">
<stop stop-color="#639AFF"/>
<stop offset="1" stop-color="#FFF6E2"/>
</linearGradient>
<linearGradient id="paint67_linear_1728_83096" x1="649.008" y1="615.809" x2="540.843" y2="570.986" gradientUnits="userSpaceOnUse">
<stop stop-color="#639AFF"/>
<stop offset="1" stop-color="#FFF6E2"/>
</linearGradient>
<linearGradient id="paint68_linear_1728_83096" x1="683.675" y1="625.962" x2="553.527" y2="572.029" gradientUnits="userSpaceOnUse">
<stop stop-color="#639AFF"/>
<stop offset="1" stop-color="#FFF6E2"/>
</linearGradient>
<linearGradient id="paint69_linear_1728_83096" x1="596.811" y1="624.421" x2="554.778" y2="607.003" gradientUnits="userSpaceOnUse">
<stop stop-color="#639AFF"/>
<stop offset="1" stop-color="#FFF6E2"/>
</linearGradient>
<linearGradient id="paint70_linear_1728_83096" x1="703.634" y1="659.187" x2="526.236" y2="585.675" gradientUnits="userSpaceOnUse">
<stop stop-color="#639AFF"/>
<stop offset="1" stop-color="#FFF6E2"/>
</linearGradient>
<linearGradient id="paint71_linear_1728_83096" x1="618.924" y1="739.141" x2="612.867" y2="728.47" gradientUnits="userSpaceOnUse">
<stop stop-color="#5B3BFF"/>
<stop offset="1" stop-color="#C4AEFF"/>
</linearGradient>
<linearGradient id="paint72_linear_1728_83096" x1="547.265" y1="763.075" x2="551.79" y2="718.74" gradientUnits="userSpaceOnUse">
<stop stop-color="#3124FF"/>
<stop offset="1" stop-color="#00FFE2"/>
</linearGradient>
<linearGradient id="paint73_linear_1728_83096" x1="529.055" y1="712.075" x2="534.678" y2="720.606" gradientUnits="userSpaceOnUse">
<stop stop-color="#6A24FF"/>
<stop offset="1" stop-color="#D3C2FF"/>
</linearGradient>
</defs>
</svg>
