<svg width="43" height="43" viewBox="0 0 43 43" fill="none" xmlns="http://www.w3.org/2000/svg">
<path d="M29.8451 7.15198C26.966 7.64185 24.375 9.19283 22.5831 11.499C21.1526 8.9528 18.82 7.03507 16.0452 6.12405C16.7904 4.9026 17.8582 3.9105 19.1311 3.25699C20.4039 2.60348 21.8325 2.31393 23.2593 2.42022C24.6862 2.5265 26.0561 3.0245 27.218 3.85938C28.38 4.69425 29.2891 5.83361 29.8451 7.15198Z" fill="white"/>
<path d="M6.12288 24.6202C6.79634 21.2053 8.59554 18.115 11.2327 15.8435C13.8699 13.572 17.1927 12.2505 20.6696 12.0904C19.9292 10.8983 18.9395 9.88075 17.7684 9.10763C16.5974 8.33451 15.2728 7.82418 13.8857 7.61173C12.4986 7.39927 11.082 7.48974 9.73321 7.8769C8.38444 8.26406 7.1355 8.93873 6.0723 9.85453C5.00909 10.7703 4.15682 11.9055 3.57411 13.182C2.99139 14.4586 2.69205 15.8462 2.69666 17.2494C2.70127 18.6526 3.00972 20.0382 3.60081 21.3109C4.1919 22.5836 5.0516 23.7132 6.1208 24.622L6.12288 24.6202Z" fill="white"/>
<path d="M36.9148 26.9122C38.1068 26.1718 39.1244 25.1821 39.8975 24.011C40.6706 22.84 41.181 21.5153 41.3934 20.1283C41.6059 18.7412 41.5154 17.3246 41.1282 15.9758C40.7411 14.627 40.0664 13.3781 39.1506 12.3149C38.2348 11.2517 37.0996 10.3994 35.8231 9.8167C34.5466 9.23398 33.159 8.93464 31.7557 8.93925C30.3525 8.94386 28.9669 9.25231 27.6942 9.8434C26.4215 10.4345 25.292 11.2942 24.3832 12.3634C27.7987 13.0366 30.8896 14.8359 33.1616 17.4736C35.4335 20.1112 36.755 23.4346 36.9148 26.9122Z" fill="white"/>
<path d="M20.3664 41.1843C23.9647 41.4523 27.5221 40.28 30.256 37.9251C32.9898 35.5703 34.6763 32.2259 34.9443 28.6276C35.2124 25.0293 34.04 21.4719 31.6852 18.7381C29.3303 16.0042 25.9859 14.3177 22.3876 14.0497C18.7894 13.7816 15.232 14.954 12.4981 17.3088C9.7642 19.6637 8.07774 23.0081 7.80971 26.6064C7.54168 30.2047 8.71403 33.762 11.0689 36.4959C13.4237 39.2298 16.7681 40.9163 20.3664 41.1843ZM16.7842 23.8642C16.8129 23.4787 16.9936 23.1204 17.2865 22.8681C17.5794 22.6158 17.9606 22.4901 18.3461 22.5189L26.5834 23.1324C26.8787 23.1546 27.1602 23.2663 27.3905 23.4524C27.6208 23.6386 27.789 23.8905 27.8725 24.1745C27.9561 24.4586 27.9512 24.7614 27.8585 25.0426C27.7657 25.3239 27.5895 25.5702 27.3533 25.7488L27.3531 25.7507L27.3263 25.7701L27.2164 25.8594C26.5229 26.4436 25.8731 27.0779 25.2723 27.7571C24.0872 29.0935 22.7142 31.0161 21.8703 33.3973C21.8064 33.5778 21.7076 33.744 21.5795 33.8864C21.4514 34.0287 21.2965 34.1444 21.1237 34.2269C20.9509 34.3094 20.7635 34.3571 20.5722 34.3672C20.381 34.3773 20.1896 34.3496 20.0091 34.2857C19.8286 34.2219 19.6624 34.123 19.52 33.9949C19.3776 33.8669 19.2619 33.712 19.1794 33.5391C19.0969 33.3663 19.0493 33.1789 19.0392 32.9877C19.0291 32.7965 19.0568 32.6051 19.1206 32.4246C20.1274 29.5839 21.7443 27.3442 23.0872 25.8247L23.1107 25.7972L18.1296 25.4261C17.744 25.3974 17.3857 25.2167 17.1334 24.9238C16.8811 24.6309 16.7555 24.2498 16.7842 23.8642Z" fill="white"/>
</svg>
