<svg width="18" height="19" viewBox="0 0 18 19" fill="none" xmlns="http://www.w3.org/2000/svg">
<path d="M10.6351 18.2296H7.35192C7.14621 18.2296 6.94667 18.1615 6.78639 18.0366C6.62611 17.9118 6.51473 17.7376 6.4707 17.5429L6.10361 15.8971C5.61389 15.6893 5.14954 15.4294 4.71909 15.1222L3.06219 15.6333C2.86607 15.6938 2.65446 15.6876 2.46249 15.6156C2.27053 15.5437 2.10976 15.4102 2.0069 15.2375L0.361717 12.4849C0.259926 12.312 0.221716 12.1108 0.253339 11.9142C0.284961 11.7176 0.384544 11.5372 0.535795 11.4025L1.82109 10.2668C1.76264 9.75237 1.76264 9.23327 1.82109 8.71882L0.535795 7.58578C0.38433 7.45105 0.284612 7.27048 0.252984 7.07367C0.221356 6.87685 0.259695 6.67547 0.361717 6.50253L2.00329 3.7481C2.10616 3.57541 2.26692 3.44199 2.45889 3.37001C2.65085 3.29802 2.86246 3.2918 3.05858 3.35237L4.71549 3.86342C4.93556 3.70617 5.16466 3.55941 5.40098 3.42662C5.62917 3.30257 5.86368 3.18988 6.10361 3.08942L6.47161 1.44533C6.51542 1.25069 6.62659 1.0764 6.7867 0.951355C6.94681 0.82631 7.14624 0.758022 7.35192 0.757812H10.6351C10.8407 0.758022 11.0402 0.82631 11.2003 0.951355C11.3604 1.0764 11.4716 1.25069 11.5154 1.44533L11.887 3.09029C12.1395 3.19862 12.3867 3.32005 12.6257 3.45545C12.8485 3.58038 13.064 3.71753 13.2715 3.86517L14.9293 3.35412C15.1253 3.29377 15.3367 3.3001 15.5285 3.37208C15.7202 3.44405 15.8809 3.57734 15.9837 3.74985L17.6253 6.50428C17.8345 6.85983 17.7624 7.30972 17.4512 7.58665L16.1659 8.72232C16.2243 9.23676 16.2243 9.75587 16.1659 10.2703L17.4512 11.406C17.7624 11.6838 17.8345 12.1328 17.6253 12.4884L15.9837 15.2428C15.8808 15.4155 15.7201 15.5489 15.5281 15.6209C15.3361 15.6929 15.1245 15.6991 14.9284 15.6385L13.2715 15.1275C12.8414 15.4344 12.3773 15.694 11.8879 15.9015L11.5154 17.5429C11.4714 17.7374 11.3601 17.9115 11.2 18.0364C11.0399 18.1612 10.8406 18.2294 10.6351 18.2296ZM8.98988 5.99934C8.03302 5.99934 7.11535 6.3675 6.43875 7.02281C5.76215 7.67813 5.38204 8.56693 5.38204 9.49369C5.38204 10.4205 5.76215 11.3093 6.43875 11.9646C7.11535 12.6199 8.03302 12.988 8.98988 12.988C9.94674 12.988 10.8644 12.6199 11.541 11.9646C12.2176 11.3093 12.5977 10.4205 12.5977 9.49369C12.5977 8.56693 12.2176 7.67813 11.541 7.02281C10.8644 6.3675 9.94674 5.99934 8.98988 5.99934Z" fill="#183B56"/>
</svg>
