<svg width="33" height="34" viewBox="0 0 33 34" fill="none" xmlns="http://www.w3.org/2000/svg">
<circle cx="16.496" cy="16.6992" r="16.4023" fill="#E7EBF5"/>
<path d="M8.09375 16.4481C8.09375 11.7643 11.7628 8.29688 16.497 8.29688C21.2312 8.29688 24.9003 11.7643 24.9003 16.4481C24.9003 21.1319 21.2312 24.5993 16.497 24.5993C15.6462 24.5993 14.8311 24.4869 14.0643 24.2768C13.9156 24.2354 13.7572 24.2465 13.6158 24.3083L11.9477 25.0457C11.847 25.0901 11.7368 25.1091 11.627 25.1011C11.5172 25.093 11.4111 25.058 11.3179 24.9993C11.2248 24.9406 11.1475 24.8599 11.0928 24.7643C11.0382 24.6688 11.0078 24.5612 11.0044 24.4512L10.9582 22.9564C10.955 22.8654 10.9334 22.7761 10.8945 22.6937C10.8557 22.6114 10.8005 22.5378 10.7324 22.4774C9.09794 21.0153 8.09375 18.8976 8.09375 16.4481ZM13.9193 14.9155L11.4509 18.8315C11.2145 19.2075 11.6757 19.6308 12.0296 19.363L14.6819 17.3504C14.7692 17.2841 14.8756 17.2481 14.9851 17.2477C15.0947 17.2473 15.2014 17.2826 15.2891 17.3483L17.2523 18.8209C17.3916 18.9254 17.551 18.9999 17.7205 19.0397C17.89 19.0794 18.0659 19.0837 18.2371 19.0521C18.4084 19.0205 18.5712 18.9538 18.7154 18.8562C18.8595 18.7585 18.9819 18.6321 19.0748 18.4848L21.5432 14.5689C21.7806 14.1928 21.3184 13.7695 20.9644 14.0374L18.3122 16.05C18.2249 16.1162 18.1185 16.1523 18.0089 16.1526C17.8994 16.153 17.7927 16.1177 17.705 16.0521L15.7418 14.5783C15.6025 14.4739 15.4431 14.3994 15.2736 14.3596C15.1041 14.3198 14.9282 14.3156 14.7569 14.3472C14.5857 14.3788 14.4229 14.4455 14.2787 14.5431C14.1346 14.6407 14.0122 14.7672 13.9193 14.9145V14.9155Z" fill="#536BF1"/>
</svg>
