<svg width="42" height="41" viewBox="0 0 42 41" fill="none" xmlns="http://www.w3.org/2000/svg">
<path d="M33.5081 38.8843H20.1837C19.8704 39.425 19.4369 39.8864 18.9168 40.2329C18.3967 40.5794 17.8039 40.8017 17.1842 40.8827C16.5646 40.9636 15.9346 40.901 15.3429 40.6997C14.7513 40.4985 14.2138 40.1638 13.7721 39.7218C13.3303 39.2797 12.9961 38.742 12.7953 38.1502C12.5944 37.5584 12.5323 36.9284 12.6137 36.3088C12.6951 35.6891 12.9178 35.0965 13.2647 34.5767C13.6116 34.0569 14.0733 33.6237 14.6143 33.3107V26.6506L7.94801 26.6526C7.616 27.2274 7.14867 27.7124 6.58663 28.0656C6.0246 28.4187 5.38484 28.6293 4.72293 28.679L4.42121 28.6892C3.52371 28.6892 2.6513 28.393 1.93927 27.8466C1.22725 27.3002 0.7154 26.5342 0.483106 25.6673C0.250812 24.8004 0.311056 23.881 0.654492 23.0518C0.997929 22.2226 1.60537 21.5299 2.3826 21.0811V7.75677C1.84095 7.4441 1.37849 7.01101 1.031 6.49101C0.683512 5.97102 0.460305 5.37805 0.37865 4.75798C0.296995 4.13792 0.359081 3.50738 0.560105 2.91514C0.761129 2.32291 1.0957 1.78487 1.53794 1.34263C1.98018 0.90039 2.51823 0.565816 3.11046 0.364792C3.70269 0.163768 4.33323 0.101683 4.95329 0.183338C5.57336 0.264993 6.16633 0.4882 6.68633 0.835691C7.20633 1.18318 7.63941 1.64564 7.95209 2.18729H21.2764C21.5891 1.64564 22.0222 1.18318 22.5422 0.835691C23.0622 0.4882 23.6552 0.264993 24.2752 0.183338C24.8953 0.101683 25.5258 0.163768 26.1181 0.364792C26.7103 0.565816 27.2483 0.90039 27.6906 1.34263C28.1328 1.78487 28.4674 2.32291 28.6684 2.91514C28.8694 3.50738 28.9315 4.13792 28.8499 4.75798C28.7682 5.37805 28.545 5.97102 28.1975 6.49101C27.85 7.01101 27.3876 7.4441 26.8459 7.75677V14.4189H33.5081C33.84 13.8435 34.3076 13.3579 34.87 13.0044C35.4325 12.6509 36.0728 12.4402 36.7352 12.3905L37.039 12.3803C37.9362 12.3803 38.8083 12.6761 39.5203 13.2221C40.2323 13.768 40.7443 14.5336 40.977 15.4001C41.2097 16.2665 41.1501 17.1856 40.8075 18.0148C40.4648 18.844 39.8582 19.537 39.0816 19.9864V33.3148C39.6227 33.628 40.0845 34.0615 40.4313 34.5817C40.7781 35.1018 41.0006 35.6948 41.0817 36.3147C41.1628 36.9346 41.1002 37.5648 40.8988 38.1567C40.6975 38.7486 40.3627 39.2862 39.9204 39.728C39.4781 40.1699 38.9401 40.504 38.348 40.7048C37.7559 40.9055 37.1256 40.9674 36.5058 40.8856C35.886 40.8039 35.2932 40.5807 34.7735 40.2333C34.2537 39.8859 33.8207 39.4237 33.5081 38.8823H20.1837H33.5081V38.8843ZM33.5081 18.4982L26.8459 18.4962L26.848 21.0811C27.423 21.4133 27.9082 21.881 28.2613 22.4434C28.6145 23.0058 28.8249 23.646 28.8743 24.3082L28.8845 24.612C28.8849 25.5097 28.5891 26.3824 28.0429 27.0948C27.4966 27.8071 26.7306 28.3193 25.8636 28.5519C24.9965 28.7844 24.077 28.7243 23.2476 28.3809C22.4182 28.0375 21.7253 27.43 21.2764 26.6526L18.6935 26.6506L18.6956 33.3148C19.3133 33.6716 19.827 34.1873 20.1837 34.803H33.5081C33.8673 34.1836 34.3825 33.6691 35.0024 33.3107V19.9905C34.4867 19.6923 34.0421 19.2853 33.6997 18.7979L33.5081 18.4982ZM22.7687 18.4962L20.1837 18.4982C19.8257 19.1154 19.3127 19.6284 18.6956 19.9864L18.6935 22.5734H21.2764C21.635 21.9542 22.1495 21.4397 22.7687 21.0811V18.4962ZM21.2764 6.26655H7.95209C7.59405 6.88372 7.08107 7.3967 6.4639 7.75473V21.0811C7.07956 21.4399 7.59533 21.9557 7.95209 22.5734H14.6163V19.9905C14.0402 19.6586 13.5541 19.1908 13.2002 18.628C12.8463 18.0651 12.6354 17.4243 12.5858 16.7613L12.5757 16.4576C12.5757 15.5601 12.8719 14.6876 13.4182 13.9756C13.9646 13.2636 14.7307 12.7517 15.5976 12.5195C16.4645 12.2872 17.3839 12.3474 18.2131 12.6908C19.0422 13.0343 19.735 13.6417 20.1837 14.4189H22.7687V7.75677C22.2539 7.45901 21.8101 7.05276 21.4681 6.56622L21.2764 6.26655Z" fill="#566FFE"/>
</svg>
