<svg width="40" height="39" viewBox="0 0 40 39" fill="none" xmlns="http://www.w3.org/2000/svg">
<path d="M29.8904 16.0102L18.8461 27.0545C18.6656 27.2354 18.4512 27.3789 18.2152 27.4768C17.9791 27.5747 17.726 27.6251 17.4705 27.6251C17.2149 27.6251 16.9619 27.5747 16.7258 27.4768C16.4898 27.3789 16.2754 27.2354 16.0948 27.0545L10.5727 21.5323C10.3921 21.3517 10.2488 21.1372 10.151 20.9012C10.0532 20.6652 10.0029 20.4122 10.0029 20.1567C10.0029 19.9012 10.0532 19.6482 10.151 19.4122C10.2488 19.1762 10.3921 18.9617 10.5727 18.781C10.7534 18.6004 10.9678 18.4571 11.2039 18.3593C11.4399 18.2615 11.6929 18.2112 11.9484 18.2112C12.2039 18.2112 12.4568 18.2615 12.6929 18.3593C12.9289 18.4571 13.1434 18.6004 13.324 18.781L17.4607 22.9178L27.1196 13.2589C27.3001 13.078 27.5145 12.9345 27.7506 12.8366C27.9866 12.7387 28.2397 12.6883 28.4952 12.6883C28.7508 12.6883 29.0038 12.7387 29.2399 12.8366C29.4759 12.9345 29.6904 13.078 29.8709 13.2589C30.6514 14.0199 30.6514 15.2492 29.8904 16.0102ZM4.62131 19.464C4.62131 14.9175 6.61162 10.8393 9.73367 7.99045L12.7191 10.9759C12.8567 11.1108 13.0311 11.2019 13.2203 11.2377C13.4096 11.2736 13.6052 11.2527 13.7826 11.1776C13.96 11.1024 14.1111 10.9765 14.217 10.8156C14.3229 10.6547 14.3788 10.4661 14.3777 10.2735V1.90246C14.3777 1.3561 13.9484 0.92682 13.4021 0.92682H5.03108C4.153 0.92682 3.72372 1.98051 4.34813 2.58541L6.96285 5.21964C3.13834 8.77097 0.71875 13.8248 0.71875 19.464C0.71875 28.7326 7.197 36.4987 15.8607 38.489C17.09 38.7621 18.2803 37.8451 18.2803 36.5767C18.2803 35.6596 17.6364 34.8791 16.7388 34.6645C9.81172 33.0839 4.62131 26.8788 4.62131 19.464ZM39.7444 19.464C39.7444 10.1954 33.2661 2.42931 24.6024 0.438999C23.3731 0.16582 22.1828 1.08292 22.1828 2.35125C22.1828 3.26836 22.8268 4.04887 23.7243 4.26351C30.6514 5.84405 35.8418 12.0491 35.8418 19.464C35.8418 24.0105 33.8515 28.0886 30.7294 30.9375L27.744 27.9521C27.6064 27.8172 27.432 27.7261 27.2428 27.6902C27.0535 27.6543 26.8579 27.6753 26.6805 27.7504C26.5032 27.8255 26.352 27.9515 26.2461 28.1124C26.1402 28.2733 26.0843 28.4619 26.0854 28.6545V37.0255C26.0854 37.5719 26.5147 38.0011 27.061 38.0011H35.432C36.3101 38.0011 36.7394 36.9475 36.115 36.3426L33.5003 33.7083C37.3248 30.157 39.7444 25.1032 39.7444 19.464Z" fill="#566FFE"/>
</svg>
