<svg width="39" height="39" viewBox="0 0 39 39" fill="none" xmlns="http://www.w3.org/2000/svg">
<path fill-rule="evenodd" clip-rule="evenodd" d="M1.59152 38.5391H38.2344V35.8248H2.94866V0.539062H0.234375V37.1819L1.59152 38.5391ZM5.66295 31.7533V10.0391L7.02009 8.68192H12.4487L13.8058 10.0391V31.7533L12.4487 33.1105H7.02009L5.66295 31.7533ZM11.0915 30.3962V11.3962H8.37723V30.3962H11.0915ZM27.3772 4.61049V31.7533L28.7344 33.1105H34.1629L35.5201 31.7533V4.61049L34.1629 3.25335H28.7344L27.3772 4.61049ZM32.8058 5.96763V30.3962H30.0915V5.96763H32.8058ZM16.5201 31.7533V15.4676L17.8772 14.1105H23.3058L24.6629 15.4676V31.7533L23.3058 33.1105H17.8772L16.5201 31.7533ZM21.9487 30.3962V16.8248H19.2344V30.3962H21.9487Z" fill="#566FFE"/>
</svg>
