<svg width="16" height="17" viewBox="0 0 16 17" fill="none" xmlns="http://www.w3.org/2000/svg">
<path d="M15.5158 2.44509L14.4529 3.27623C13.0036 1.4236 10.7495 0.234375 8.21841 0.234375C3.84787 0.234375 0.310348 3.76813 0.304694 8.14055C0.29904 12.5168 3.8441 16.0656 8.21841 16.0656C11.6353 16.0656 14.5471 13.8982 15.6553 10.862C15.6836 10.7829 15.6421 10.6943 15.563 10.6679L14.4944 10.3004C14.4571 10.2876 14.4163 10.2899 14.3807 10.3068C14.3452 10.3237 14.3176 10.3539 14.304 10.3908C14.2701 10.4851 14.2324 10.5793 14.1928 10.6717C13.8668 11.4444 13.3994 12.1379 12.8038 12.7335C12.2131 13.3253 11.5136 13.7976 10.7439 14.1244C9.94665 14.4617 9.09667 14.6332 8.22218 14.6332C7.34581 14.6332 6.49771 14.4617 5.7005 14.1244C4.93 13.799 4.23031 13.3266 3.64056 12.7335C3.0482 12.1428 2.57644 11.4425 2.25156 10.6717C1.9142 9.87256 1.7427 9.02446 1.7427 8.14809C1.7427 7.27172 1.9142 6.42362 2.25156 5.62452C2.5776 4.85181 3.045 4.15825 3.64056 3.5627C4.23611 2.96714 4.92967 2.49974 5.7005 2.17181C6.49771 1.83446 7.3477 1.66295 8.22218 1.66295C9.09855 1.66295 9.94665 1.83446 10.7439 2.17181C11.5144 2.49719 12.2141 2.96963 12.8038 3.5627C12.9904 3.74928 13.1657 3.94717 13.3277 4.15448L12.1932 5.04028C12.1707 5.05764 12.1536 5.08099 12.1439 5.10764C12.1341 5.13429 12.1321 5.16315 12.138 5.19091C12.1439 5.21867 12.1575 5.2442 12.1773 5.26456C12.197 5.28492 12.2221 5.29929 12.2497 5.30601L15.5592 6.11642C15.6534 6.13904 15.7458 6.06742 15.7458 5.9713L15.7608 2.56194C15.759 2.43755 15.6138 2.36782 15.5158 2.44509Z" fill="#183B56"/>
</svg>
