<svg width="34" height="34" viewBox="0 0 34 34" fill="none" xmlns="http://www.w3.org/2000/svg">
<circle cx="16.6835" cy="16.6992" r="16.4023" fill="#E7EBF5"/>
<path fill-rule="evenodd" clip-rule="evenodd" d="M21.5293 17.6639C21.2977 17.5481 20.162 16.99 19.9506 16.9122C19.7391 16.8353 19.5852 16.7972 19.4305 17.0288C19.2766 17.2589 18.8343 17.7797 18.6998 17.9336C18.5646 18.0883 18.4301 18.107 18.1993 17.9919C17.9684 17.8753 17.2237 17.632 16.3414 16.8454C15.6551 16.2328 15.191 15.4765 15.0565 15.2449C14.922 15.014 15.0418 14.8889 15.1576 14.7738C15.2617 14.6704 15.3884 14.5041 15.5043 14.3696C15.6201 14.2343 15.6582 14.138 15.7351 13.9833C15.8129 13.8294 15.774 13.6949 15.7157 13.5791C15.6582 13.4632 15.1964 12.326 15.0037 11.8635C14.8163 11.4134 14.6259 11.4748 14.4844 11.4671C14.3492 11.4608 14.1952 11.4593 14.0413 11.4593C13.8874 11.4593 13.6371 11.5168 13.4257 11.7485C13.2135 11.9793 12.6173 12.5382 12.6173 13.6754C12.6173 14.8119 13.4443 15.9103 13.5602 16.0649C13.676 16.2189 15.1887 18.5524 17.5059 19.5528C18.0578 19.7907 18.4876 19.9329 18.8227 20.0386C19.3761 20.2151 19.8798 20.1902 20.2778 20.1304C20.7209 20.0643 21.6444 19.5715 21.8371 19.032C22.0291 18.4925 22.0291 18.03 21.9716 17.9336C21.9141 17.8372 21.7602 17.7797 21.5285 17.6639H21.5293ZM17.3147 23.4184H17.3115C15.9352 23.4187 14.5842 23.0487 13.4 22.3473L13.1202 22.1809L10.2115 22.9443L10.988 20.1086L10.8053 19.8179C10.0359 18.5931 9.62869 17.1756 9.63079 15.7291C9.63234 11.4927 13.079 8.04605 17.3178 8.04605C19.3699 8.04605 21.2992 8.8467 22.7497 10.2987C23.4651 11.0112 24.0322 11.8585 24.4181 12.7915C24.8039 13.7246 25.001 14.7249 24.9977 15.7346C24.9962 19.971 21.5495 23.4184 17.3147 23.4184ZM23.8535 9.19572C22.9971 8.3336 21.978 7.65004 20.8554 7.18462C19.7329 6.71921 18.5291 6.48121 17.3139 6.48441C12.2193 6.48441 8.07147 10.6314 8.06992 15.7284C8.06914 17.3576 8.49434 18.948 9.30354 20.3496L7.99219 25.1402L12.8924 23.8545C14.248 24.5931 15.7671 24.9801 17.3108 24.9801H17.3147C22.4092 24.9801 26.5571 20.8331 26.5586 15.7354C26.5624 14.5206 26.3252 13.3172 25.8609 12.1947C25.3966 11.0722 24.7143 10.0529 23.8535 9.19572Z" fill="#536BF1"/>
</svg>
