<svg width="34" height="34" viewBox="0 0 34 34" fill="none" xmlns="http://www.w3.org/2000/svg">
<circle cx="16.8867" cy="16.6992" r="16.4023" fill="#E7EBF5"/>
<path d="M27.1023 11.8182C26.9815 11.3874 26.7463 10.9974 26.4216 10.6896C26.0877 10.3723 25.6785 10.1454 25.2326 10.0302C23.5637 9.59034 16.8776 9.59034 16.8776 9.59034C14.0902 9.55863 11.3036 9.69811 8.53331 10.008C8.08738 10.1317 7.67894 10.3637 7.34431 10.6834C7.01552 10.9997 6.77736 11.3898 6.65295 11.8173C6.3541 13.4272 6.20889 15.062 6.2193 16.6994C6.20863 18.3354 6.35348 19.9696 6.65295 21.5816C6.7747 22.0073 7.01196 22.3956 7.34165 22.7093C7.67133 23.023 8.08188 23.2496 8.53331 23.3695C10.2244 23.8085 16.8776 23.8085 16.8776 23.8085C19.6685 23.8403 22.4587 23.7008 25.2326 23.3909C25.6785 23.2757 26.0877 23.0487 26.4216 22.7315C26.7504 22.4178 26.9841 22.0277 27.1014 21.6029C27.408 19.9936 27.5571 18.3582 27.5466 16.7199C27.5696 15.0747 27.4207 13.4315 27.1023 11.8173V11.8182ZM14.752 19.7421V13.6576L20.3149 16.7003L14.752 19.7421Z" fill="#536BF1"/>
</svg>
